<svg width="412" height="391" viewBox="0 0 412 391" fill="none" xmlns="http://www.w3.org/2000/svg">
<g clip-path="url(#clip0_17_36)">
<path d="M419 386.063C419 387.398 418.474 388.633 417.544 389.563C416.634 390.474 415.401 391 414.067 391C412.732 391 411.499 390.474 410.589 389.563C408.749 387.722 408.749 384.424 410.589 382.583C411.499 381.672 412.793 381.126 414.067 381.126C415.34 381.126 416.634 381.652 417.544 382.583C418.474 383.514 419 384.748 419 386.063Z" fill="#F8C30F"/>
<path d="M384.85 363.706C382.141 363.706 379.917 361.5 379.917 358.769C379.917 356.057 382.141 353.832 384.85 353.832C387.58 353.832 389.783 356.057 389.783 358.769C389.783 361.5 387.58 363.706 384.85 363.706Z" fill="#F8C30F"/>
<path d="M419 358.768C419 360.104 418.474 361.338 417.544 362.269C417.322 362.491 417.079 362.694 416.796 362.896C416.533 363.078 416.25 363.22 415.967 363.341C415.664 363.462 415.361 363.564 415.057 363.604C414.734 363.685 414.39 363.705 414.067 363.705C412.752 363.705 411.499 363.179 410.589 362.269C409.436 361.115 408.911 359.396 409.234 357.797C409.315 357.473 409.376 357.19 409.537 356.887C409.659 356.583 409.8 356.3 409.982 356.017C410.144 355.754 410.366 355.491 410.589 355.268C411.499 354.357 412.752 353.811 414.067 353.811C414.39 353.811 414.734 353.831 415.057 353.912C415.361 353.993 415.664 354.054 415.967 354.175C416.27 354.297 416.533 354.479 416.796 354.641C417.059 354.823 417.322 355.045 417.544 355.268C418.474 356.199 419 357.433 419 358.748V358.768Z" fill="#F8C30F"/>
<path d="M384.85 336.411C382.141 336.411 379.916 334.205 379.916 331.474C379.916 328.762 382.141 326.537 384.85 326.537C387.579 326.537 389.783 328.762 389.783 331.474C389.783 334.205 387.579 336.411 384.85 336.411ZM355.613 336.411C352.904 336.411 350.68 334.205 350.68 331.474C350.68 328.762 352.904 326.537 355.613 326.537C358.343 326.537 360.547 328.762 360.547 331.474C360.547 334.205 358.343 336.411 355.613 336.411Z" fill="#F8C30F"/>
<path d="M419 331.474C419 332.809 418.474 334.043 417.544 334.974C416.634 335.884 415.401 336.411 414.066 336.411C412.732 336.411 411.499 335.884 410.589 334.974C408.749 333.133 408.749 329.835 410.589 327.993C411.499 327.083 412.793 326.537 414.066 326.537C415.34 326.537 416.634 327.063 417.544 327.993C418.474 328.924 419 330.158 419 331.474Z" fill="#F8C30F"/>
<path d="M384.85 309.116C382.141 309.116 379.916 306.91 379.916 304.179C379.916 301.468 382.141 299.242 384.85 299.242C387.58 299.242 389.783 301.468 389.783 304.179C389.783 306.91 387.58 309.116 384.85 309.116ZM355.613 309.116C352.904 309.116 350.68 306.91 350.68 304.179C350.68 301.468 352.904 299.242 355.613 299.242C358.343 299.242 360.547 301.468 360.547 304.179C360.547 306.91 358.343 309.116 355.613 309.116ZM326.397 309.116C323.687 309.116 321.463 306.91 321.463 304.179C321.463 301.468 323.687 299.242 326.397 299.242C329.126 299.242 331.33 301.468 331.33 304.179C331.33 306.91 329.126 309.116 326.397 309.116Z" fill="#F8C30F"/>
<path d="M419 304.179C419 305.514 418.474 306.749 417.544 307.679C417.322 307.902 417.079 308.124 416.796 308.306C416.533 308.489 416.25 308.63 415.967 308.752C415.664 308.873 415.361 308.974 415.057 309.055C414.734 309.096 414.39 309.156 414.066 309.156C412.793 309.156 411.499 308.61 410.589 307.7C408.749 305.858 408.749 302.54 410.589 300.719C411.499 299.808 412.793 299.262 414.066 299.262C415.34 299.262 416.634 299.788 417.544 300.719C418.474 301.65 419 302.884 419 304.199V304.179Z" fill="#F8C30F"/>
<path d="M384.85 281.821C382.141 281.821 379.917 279.616 379.917 276.884C379.917 274.173 382.141 271.947 384.85 271.947C387.58 271.947 389.784 274.173 389.784 276.884C389.784 279.616 387.58 281.821 384.85 281.821ZM355.613 281.821C352.904 281.821 350.68 279.616 350.68 276.884C350.68 274.173 352.904 271.947 355.613 271.947C358.343 271.947 360.547 274.173 360.547 276.884C360.547 279.616 358.343 281.821 355.613 281.821ZM326.397 281.821C323.687 281.821 321.463 279.616 321.463 276.884C321.463 274.173 323.687 271.947 326.397 271.947C329.126 271.947 331.33 274.173 331.33 276.884C331.33 279.616 329.126 281.821 326.397 281.821ZM297.16 281.821C294.451 281.821 292.226 279.616 292.226 276.884C292.226 274.173 294.451 271.947 297.16 271.947C299.889 271.947 302.093 274.173 302.093 276.884C302.093 279.616 299.889 281.821 297.16 281.821Z" fill="#F8C30F"/>
<path d="M419 276.884C419 278.22 418.474 279.454 417.544 280.385C416.634 281.295 415.401 281.821 414.067 281.821C412.732 281.821 411.499 281.295 410.589 280.385C408.749 278.543 408.749 275.225 410.589 273.404C411.499 272.494 412.793 271.947 414.067 271.947C415.34 271.947 416.634 272.473 417.544 273.404C418.474 274.335 419 275.569 419 276.884Z" fill="#F8C30F"/>
<path d="M384.85 254.526C382.141 254.526 379.916 252.321 379.916 249.589C379.916 246.878 382.141 244.653 384.85 244.653C387.58 244.653 389.783 246.878 389.783 249.589C389.783 252.321 387.58 254.526 384.85 254.526ZM355.613 254.526C352.904 254.526 350.68 252.321 350.68 249.589C350.68 246.878 352.904 244.653 355.613 244.653C358.343 244.653 360.547 246.878 360.547 249.589C360.547 252.321 358.343 254.526 355.613 254.526ZM326.397 254.526C323.687 254.526 321.463 252.321 321.463 249.589C321.463 246.878 323.687 244.653 326.397 244.653C329.126 244.653 331.33 246.878 331.33 249.589C331.33 252.321 329.126 254.526 326.397 254.526ZM297.16 254.526C294.45 254.526 292.226 252.321 292.226 249.589C292.226 246.878 294.45 244.653 297.16 244.653C299.889 244.653 302.093 246.878 302.093 249.589C302.093 252.321 299.889 254.526 297.16 254.526ZM267.943 254.526C265.234 254.526 263.01 252.321 263.01 249.589C263.01 246.878 265.234 244.653 267.943 244.653C270.673 244.653 272.877 246.878 272.877 249.589C272.877 252.321 270.673 254.526 267.943 254.526Z" fill="#F8C30F"/>
<path d="M419 249.589C419 250.925 418.474 252.159 417.544 253.09C416.634 254.021 415.401 254.526 414.066 254.526C412.732 254.526 411.499 254 410.589 253.09C408.749 251.249 408.749 247.951 410.589 246.109C411.499 245.199 412.752 244.653 414.066 244.653C415.381 244.653 416.634 245.179 417.544 246.109C418.009 246.575 418.373 247.121 418.636 247.708C418.879 248.295 419 248.942 419 249.589Z" fill="#F8C30F"/>
<path d="M384.85 227.232C382.141 227.232 379.917 225.026 379.917 222.295C379.917 219.583 382.141 217.358 384.85 217.358C387.58 217.358 389.783 219.583 389.783 222.295C389.783 225.026 387.58 227.232 384.85 227.232ZM355.613 227.232C352.904 227.232 350.68 225.026 350.68 222.295C350.68 219.583 352.904 217.358 355.613 217.358C358.343 217.358 360.547 219.583 360.547 222.295C360.547 225.026 358.343 227.232 355.613 227.232ZM326.397 227.232C323.687 227.232 321.463 225.026 321.463 222.295C321.463 219.583 323.687 217.358 326.397 217.358C329.126 217.358 331.33 219.583 331.33 222.295C331.33 225.026 329.126 227.232 326.397 227.232ZM297.16 227.232C294.45 227.232 292.226 225.026 292.226 222.295C292.226 219.583 294.45 217.358 297.16 217.358C299.889 217.358 302.093 219.583 302.093 222.295C302.093 225.026 299.889 227.232 297.16 227.232ZM267.943 227.232C265.234 227.232 263.01 225.026 263.01 222.295C263.01 219.583 265.234 217.358 267.943 217.358C270.673 217.358 272.877 219.583 272.877 222.295C272.877 225.026 270.673 227.232 267.943 227.232ZM238.727 227.232C236.017 227.232 233.793 225.026 233.793 222.295C233.793 219.583 236.017 217.358 238.727 217.358C241.456 217.358 243.66 219.583 243.66 222.295C243.66 225.026 241.456 227.232 238.727 227.232Z" fill="#F8C30F"/>
<path d="M419 222.295C419 223.63 418.474 224.864 417.544 225.795C416.634 226.726 415.401 227.232 414.067 227.232C412.732 227.232 411.499 226.706 410.589 225.795C410.366 225.573 410.144 225.309 409.982 225.026C409.8 224.763 409.659 224.48 409.537 224.197C409.396 223.893 409.315 223.59 409.234 223.266C408.911 221.688 409.436 219.988 410.589 218.815C411.499 217.904 412.793 217.358 414.067 217.358C414.39 217.358 414.734 217.398 415.057 217.459C415.361 217.54 415.664 217.621 415.967 217.762C416.27 217.884 416.533 218.025 416.796 218.208C417.059 218.39 417.322 218.612 417.544 218.815C418.474 219.745 419 220.98 419 222.295Z" fill="#F8C30F"/>
<path d="M384.85 199.937C382.141 199.937 379.916 197.731 379.916 195C379.916 192.289 382.141 190.063 384.85 190.063C387.58 190.063 389.783 192.289 389.783 195C389.783 197.731 387.58 199.937 384.85 199.937ZM355.613 199.937C352.904 199.937 350.68 197.731 350.68 195C350.68 192.289 352.904 190.063 355.613 190.063C358.343 190.063 360.547 192.289 360.547 195C360.547 197.731 358.343 199.937 355.613 199.937ZM326.397 199.937C323.687 199.937 321.463 197.731 321.463 195C321.463 192.289 323.687 190.063 326.397 190.063C329.126 190.063 331.33 192.289 331.33 195C331.33 197.731 329.126 199.937 326.397 199.937ZM297.16 199.937C294.45 199.937 292.226 197.731 292.226 195C292.226 192.289 294.45 190.063 297.16 190.063C299.889 190.063 302.093 192.289 302.093 195C302.093 197.731 299.889 199.937 297.16 199.937ZM267.943 199.937C265.234 199.937 263.01 197.731 263.01 195C263.01 192.289 265.234 190.063 267.943 190.063C270.673 190.063 272.877 192.289 272.877 195C272.877 197.731 270.673 199.937 267.943 199.937ZM238.727 199.937C236.017 199.937 233.793 197.731 233.793 195C233.793 192.289 236.017 190.063 238.727 190.063C241.456 190.063 243.66 192.289 243.66 195C243.66 197.731 241.456 199.937 238.727 199.937ZM209.49 199.937C206.781 199.937 204.556 197.731 204.556 195C204.556 192.289 206.781 190.063 209.49 190.063C212.219 190.063 214.423 192.289 214.423 195C214.423 197.731 212.219 199.937 209.49 199.937Z" fill="#F8C30F"/>
<path d="M419 195C419 196.335 418.474 197.57 417.544 198.5C416.634 199.431 415.401 199.937 414.067 199.937C412.732 199.937 411.499 199.411 410.589 198.5C410.366 198.258 410.144 198.015 409.982 197.732C409.8 197.468 409.659 197.185 409.537 196.902C409.396 196.598 409.315 196.295 409.234 195.971C408.911 194.393 409.436 192.693 410.589 191.52C411.499 190.609 412.793 190.063 414.067 190.063C414.39 190.063 414.734 190.124 415.057 190.164C415.361 190.245 415.664 190.306 415.967 190.427C416.27 190.549 416.533 190.731 416.796 190.893C417.059 191.075 417.322 191.297 417.544 191.52C418.474 192.451 419 193.685 419 195Z" fill="#F8C30F"/>
<path d="M384.85 172.642C382.12 172.642 379.917 170.437 379.917 167.705C379.917 164.994 382.12 162.768 384.85 162.768C387.58 162.768 389.783 164.994 389.783 167.705C389.783 170.437 387.58 172.642 384.85 172.642ZM355.613 172.642C352.904 172.642 350.68 170.437 350.68 167.705C350.68 164.994 352.904 162.768 355.613 162.768C358.343 162.768 360.547 164.994 360.547 167.705C360.547 170.437 358.343 172.642 355.613 172.642ZM326.397 172.642C323.687 172.642 321.463 170.437 321.463 167.705C321.463 164.994 323.687 162.768 326.397 162.768C329.126 162.768 331.33 164.994 331.33 167.705C331.33 170.437 329.126 172.642 326.397 172.642ZM297.16 172.642C294.45 172.642 292.226 170.437 292.226 167.705C292.226 164.994 294.45 162.768 297.16 162.768C299.889 162.768 302.093 164.994 302.093 167.705C302.093 170.437 299.889 172.642 297.16 172.642ZM267.943 172.642C265.234 172.642 263.01 170.437 263.01 167.705C263.01 164.994 265.234 162.768 267.943 162.768C270.673 162.768 272.877 164.994 272.877 167.705C272.877 170.437 270.673 172.642 267.943 172.642ZM238.727 172.642C236.017 172.642 233.793 170.437 233.793 167.705C233.793 164.994 236.017 162.768 238.727 162.768C241.456 162.768 243.66 164.994 243.66 167.705C243.66 170.437 241.456 172.642 238.727 172.642ZM209.49 172.642C206.781 172.642 204.556 170.437 204.556 167.705C204.556 164.994 206.781 162.768 209.49 162.768C212.219 162.768 214.423 164.994 214.423 167.705C214.423 170.437 212.219 172.642 209.49 172.642ZM180.273 172.642C177.564 172.642 175.34 170.437 175.34 167.705C175.34 164.994 177.564 162.768 180.273 162.768C183.003 162.768 185.207 164.994 185.207 167.705C185.207 170.437 183.003 172.642 180.273 172.642Z" fill="#F8C30F"/>
<path d="M419 167.705C419 169.041 418.474 170.275 417.544 171.206C416.634 172.136 415.401 172.642 414.067 172.642C412.732 172.642 411.499 172.116 410.589 171.206C408.749 169.364 408.749 166.066 410.589 164.225C411.499 163.315 412.752 162.768 414.067 162.768C415.381 162.768 416.634 163.294 417.544 164.225C418.474 165.156 419 166.39 419 167.705Z" fill="#F8C30F"/>
<path d="M384.85 145.347C382.141 145.347 379.917 143.142 379.917 140.411C379.917 137.699 382.141 135.474 384.85 135.474C387.58 135.474 389.783 137.699 389.783 140.411C389.783 143.142 387.58 145.347 384.85 145.347ZM355.613 145.347C352.904 145.347 350.68 143.142 350.68 140.411C350.68 137.699 352.904 135.474 355.613 135.474C358.343 135.474 360.547 137.699 360.547 140.411C360.547 143.142 358.343 145.347 355.613 145.347ZM326.397 145.347C323.687 145.347 321.463 143.142 321.463 140.411C321.463 137.699 323.687 135.474 326.397 135.474C329.126 135.474 331.33 137.699 331.33 140.411C331.33 143.142 329.126 145.347 326.397 145.347ZM297.16 145.347C294.45 145.347 292.226 143.142 292.226 140.411C292.226 137.699 294.45 135.474 297.16 135.474C299.889 135.474 302.093 137.699 302.093 140.411C302.093 143.142 299.889 145.347 297.16 145.347ZM267.943 145.347C265.234 145.347 263.01 143.142 263.01 140.411C263.01 137.699 265.234 135.474 267.943 135.474C270.673 135.474 272.877 137.699 272.877 140.411C272.877 143.142 270.673 145.347 267.943 145.347ZM238.727 145.347C236.017 145.347 233.793 143.142 233.793 140.411C233.793 137.699 236.017 135.474 238.727 135.474C241.456 135.474 243.66 137.699 243.66 140.411C243.66 143.142 241.456 145.347 238.727 145.347ZM209.49 145.347C206.781 145.347 204.556 143.142 204.556 140.411C204.556 137.699 206.781 135.474 209.49 135.474C212.219 135.474 214.423 137.699 214.423 140.411C214.423 143.142 212.219 145.347 209.49 145.347ZM180.273 145.347C177.564 145.347 175.34 143.142 175.34 140.411C175.34 137.699 177.564 135.474 180.273 135.474C183.003 135.474 185.207 137.699 185.207 140.411C185.207 143.142 183.003 145.347 180.273 145.347ZM151.057 145.347C148.347 145.347 146.123 143.142 146.123 140.411C146.123 137.699 148.347 135.474 151.057 135.474C153.786 135.474 155.99 137.699 155.99 140.411C155.99 143.142 153.786 145.347 151.057 145.347Z" fill="#F8C30F"/>
<path d="M419 140.411C419 141.746 418.474 142.98 417.544 143.911C416.634 144.842 415.401 145.347 414.067 145.347C413.743 145.347 413.42 145.327 413.096 145.267C412.773 145.186 412.489 145.084 412.186 144.963C411.883 144.842 411.6 144.7 411.317 144.518C411.054 144.356 410.791 144.133 410.569 143.891C408.729 142.049 408.729 138.731 410.569 136.91C410.791 136.688 411.034 136.465 411.317 136.303C411.58 136.121 411.883 135.979 412.186 135.858C412.489 135.737 412.773 135.636 413.096 135.555C413.42 135.514 413.743 135.474 414.067 135.474C415.401 135.474 416.634 135.959 417.544 136.91C417.787 137.133 417.989 137.396 418.191 137.679C418.373 137.922 418.515 138.225 418.636 138.509C418.757 138.812 418.858 139.095 418.899 139.419C418.98 139.743 419 140.067 419 140.39V140.411Z" fill="#F8C30F"/>
<path d="M384.85 118.053C382.12 118.053 379.916 115.848 379.916 113.116C379.916 110.405 382.12 108.179 384.85 108.179C387.58 108.179 389.783 110.405 389.783 113.116C389.783 115.848 387.58 118.053 384.85 118.053ZM355.613 118.053C352.904 118.053 350.68 115.848 350.68 113.116C350.68 110.405 352.904 108.179 355.613 108.179C358.343 108.179 360.547 110.405 360.547 113.116C360.547 115.848 358.343 118.053 355.613 118.053ZM326.397 118.053C323.687 118.053 321.463 115.848 321.463 113.116C321.463 110.405 323.687 108.179 326.397 108.179C329.126 108.179 331.33 110.405 331.33 113.116C331.33 115.848 329.126 118.053 326.397 118.053ZM297.16 118.053C294.45 118.053 292.226 115.848 292.226 113.116C292.226 110.405 294.45 108.179 297.16 108.179C299.889 108.179 302.093 110.405 302.093 113.116C302.093 115.848 299.889 118.053 297.16 118.053ZM267.943 118.053C265.234 118.053 263.01 115.848 263.01 113.116C263.01 110.405 265.234 108.179 267.943 108.179C270.673 108.179 272.877 110.405 272.877 113.116C272.877 115.848 270.673 118.053 267.943 118.053ZM238.727 118.053C236.017 118.053 233.793 115.848 233.793 113.116C233.793 110.405 236.017 108.179 238.727 108.179C241.456 108.179 243.66 110.405 243.66 113.116C243.66 115.848 241.456 118.053 238.727 118.053ZM209.49 118.053C206.781 118.053 204.556 115.848 204.556 113.116C204.556 110.405 206.781 108.179 209.49 108.179C212.219 108.179 214.423 110.405 214.423 113.116C214.423 115.848 212.219 118.053 209.49 118.053ZM180.273 118.053C177.564 118.053 175.34 115.848 175.34 113.116C175.34 110.405 177.564 108.179 180.273 108.179C183.003 108.179 185.207 110.405 185.207 113.116C185.207 115.848 183.003 118.053 180.273 118.053ZM151.057 118.053C148.347 118.053 146.123 115.848 146.123 113.116C146.123 110.405 148.347 108.179 151.057 108.179C153.786 108.179 155.99 110.405 155.99 113.116C155.99 115.848 153.786 118.053 151.057 118.053ZM121.82 118.053C119.111 118.053 116.886 115.848 116.886 113.116C116.886 110.405 119.111 108.179 121.82 108.179C124.55 108.179 126.753 110.405 126.753 113.116C126.753 115.848 124.55 118.053 121.82 118.053Z" fill="#F8C30F"/>
<path d="M419 113.116C419 114.451 418.474 115.685 417.544 116.616C416.634 117.547 415.401 118.053 414.067 118.053C412.732 118.053 411.499 117.527 410.589 116.616C409.436 115.463 408.911 113.743 409.234 112.145C409.315 111.841 409.416 111.538 409.537 111.234C409.659 110.931 409.8 110.647 409.982 110.364C410.144 110.101 410.366 109.838 410.589 109.615C410.811 109.393 411.054 109.17 411.337 109.008C411.6 108.826 411.903 108.685 412.206 108.563C412.51 108.442 412.793 108.341 413.116 108.26C413.44 108.199 413.763 108.159 414.087 108.159C415.421 108.159 416.655 108.685 417.564 109.615C418.029 110.081 418.393 110.627 418.656 111.214C418.899 111.801 419.02 112.448 419.02 113.096L419 113.116Z" fill="#F8C30F"/>
<path d="M384.85 90.758C382.141 90.758 379.916 88.5526 379.916 85.8211C379.916 83.1098 382.141 80.8842 384.85 80.8842C387.579 80.8842 389.783 83.1098 389.783 85.8211C389.783 88.5526 387.579 90.758 384.85 90.758ZM355.613 90.758C352.904 90.758 350.68 88.5526 350.68 85.8211C350.68 83.1098 352.904 80.8842 355.613 80.8842C358.343 80.8842 360.547 83.1098 360.547 85.8211C360.547 88.5526 358.343 90.758 355.613 90.758ZM326.397 90.758C323.687 90.758 321.463 88.5526 321.463 85.8211C321.463 83.1098 323.687 80.8842 326.397 80.8842C329.126 80.8842 331.33 83.1098 331.33 85.8211C331.33 88.5526 329.126 90.758 326.397 90.758ZM297.16 90.758C294.45 90.758 292.226 88.5526 292.226 85.8211C292.226 83.1098 294.45 80.8842 297.16 80.8842C299.889 80.8842 302.093 83.1098 302.093 85.8211C302.093 88.5526 299.889 90.758 297.16 90.758ZM267.943 90.758C265.234 90.758 263.01 88.5526 263.01 85.8211C263.01 83.1098 265.234 80.8842 267.943 80.8842C270.673 80.8842 272.877 83.1098 272.877 85.8211C272.877 88.5526 270.673 90.758 267.943 90.758ZM238.727 90.758C236.017 90.758 233.793 88.5526 233.793 85.8211C233.793 83.1098 236.017 80.8842 238.727 80.8842C241.456 80.8842 243.66 83.1098 243.66 85.8211C243.66 88.5526 241.456 90.758 238.727 90.758ZM209.49 90.758C206.781 90.758 204.556 88.5526 204.556 85.8211C204.556 83.1098 206.781 80.8842 209.49 80.8842C212.219 80.8842 214.423 83.1098 214.423 85.8211C214.423 88.5526 212.219 90.758 209.49 90.758ZM180.273 90.758C177.564 90.758 175.34 88.5526 175.34 85.8211C175.34 83.1098 177.564 80.8842 180.273 80.8842C183.003 80.8842 185.207 83.1098 185.207 85.8211C185.207 88.5526 183.003 90.758 180.273 90.758ZM151.057 90.758C148.347 90.758 146.123 88.5526 146.123 85.8211C146.123 83.1098 148.347 80.8842 151.057 80.8842C153.786 80.8842 155.99 83.1098 155.99 85.8211C155.99 88.5526 153.786 90.758 151.057 90.758ZM121.82 90.758C119.111 90.758 116.886 88.5526 116.886 85.8211C116.886 83.1098 119.111 80.8842 121.82 80.8842C124.55 80.8842 126.753 83.1098 126.753 85.8211C126.753 88.5526 124.55 90.758 121.82 90.758ZM92.6034 90.758C89.894 90.758 87.6699 88.5526 87.6699 85.8211C87.6699 83.1098 89.894 80.8842 92.6034 80.8842C95.3329 80.8842 97.5368 83.1098 97.5368 85.8211C97.5368 88.5526 95.3329 90.758 92.6034 90.758Z" fill="#F8C30F"/>
<path d="M419 85.8211C419 87.1565 418.474 88.3907 417.544 89.3214C417.322 89.544 417.079 89.7666 416.796 89.9284C416.533 90.0903 416.25 90.2522 415.967 90.3736C415.664 90.495 415.361 90.5961 415.057 90.6771C414.734 90.7175 414.39 90.7782 414.067 90.7782C413.743 90.7782 413.42 90.7175 413.096 90.6771C412.773 90.5961 412.489 90.495 412.186 90.3736C411.883 90.2522 411.6 90.1105 411.317 89.9284C411.054 89.7261 410.791 89.5238 410.569 89.3214C410.346 89.0989 410.124 88.8358 409.942 88.5526C409.76 88.3098 409.618 88.0063 409.497 87.723C409.376 87.4195 409.275 87.116 409.194 86.7923C409.072 86.165 409.072 85.4973 409.194 84.8701C409.275 84.5666 409.376 84.2429 409.497 83.9596C409.618 83.6561 409.76 83.3729 409.942 83.0896C410.104 82.8266 410.326 82.5635 410.569 82.3409C410.791 82.1184 411.034 81.8958 411.317 81.734C411.58 81.5519 411.883 81.4102 412.186 81.2888C412.489 81.1674 412.773 81.0663 413.096 80.9853C413.42 80.9449 413.743 80.8842 414.067 80.8842C414.39 80.8842 414.734 80.9246 415.057 80.9853C415.361 81.0663 415.664 81.1674 415.967 81.2484C416.27 81.3698 416.533 81.5519 416.796 81.7137C417.059 81.8756 417.322 82.1184 417.544 82.3207C418.009 82.7861 418.373 83.3324 418.636 83.9192C418.879 84.5059 419 85.1534 419 85.8008V85.8211Z" fill="#F8C30F"/>
<path d="M384.85 63.4636C382.141 63.4636 379.917 61.2582 379.917 58.5469C379.917 55.8154 382.141 53.5898 384.85 53.5898C387.58 53.5898 389.783 55.8154 389.783 58.5469C389.783 61.2582 387.58 63.4636 384.85 63.4636ZM355.613 63.4636C352.904 63.4636 350.68 61.2582 350.68 58.5469C350.68 55.8154 352.904 53.5898 355.613 53.5898C358.343 53.5898 360.547 55.8154 360.547 58.5469C360.547 61.2582 358.343 63.4636 355.613 63.4636ZM326.397 63.4636C323.687 63.4636 321.463 61.2582 321.463 58.5469C321.463 55.8154 323.687 53.5898 326.397 53.5898C329.126 53.5898 331.33 55.8154 331.33 58.5469C331.33 61.2582 329.126 63.4636 326.397 63.4636ZM297.16 63.4636C294.45 63.4636 292.226 61.2582 292.226 58.5469C292.226 55.8154 294.45 53.5898 297.16 53.5898C299.889 53.5898 302.093 55.8154 302.093 58.5469C302.093 61.2582 299.889 63.4636 297.16 63.4636ZM267.943 63.4636C265.234 63.4636 263.01 61.2582 263.01 58.5469C263.01 55.8154 265.234 53.5898 267.943 53.5898C270.673 53.5898 272.877 55.8154 272.877 58.5469C272.877 61.2582 270.673 63.4636 267.943 63.4636ZM238.727 63.4636C236.017 63.4636 233.793 61.2582 233.793 58.5469C233.793 55.8154 236.017 53.5898 238.727 53.5898C241.456 53.5898 243.66 55.8154 243.66 58.5469C243.66 61.2582 241.456 63.4636 238.727 63.4636ZM209.49 63.4636C206.781 63.4636 204.556 61.2582 204.556 58.5469C204.556 55.8154 206.781 53.5898 209.49 53.5898C212.219 53.5898 214.423 55.8154 214.423 58.5469C214.423 61.2582 212.219 63.4636 209.49 63.4636ZM180.273 63.4636C177.564 63.4636 175.34 61.2582 175.34 58.5469C175.34 55.8154 177.564 53.5898 180.273 53.5898C183.003 53.5898 185.207 55.8154 185.207 58.5469C185.207 61.2582 183.003 63.4636 180.273 63.4636ZM151.057 63.4636C148.347 63.4636 146.123 61.2582 146.123 58.5469C146.123 55.8154 148.347 53.5898 151.057 53.5898C153.786 53.5898 155.99 55.8154 155.99 58.5469C155.99 61.2582 153.786 63.4636 151.057 63.4636ZM121.82 63.4636C119.111 63.4636 116.887 61.2582 116.887 58.5469C116.887 55.8154 119.111 53.5898 121.82 53.5898C124.55 53.5898 126.753 55.8154 126.753 58.5469C126.753 61.2582 124.55 63.4636 121.82 63.4636ZM92.6034 63.4636C89.8941 63.4636 87.67 61.2582 87.67 58.5469C87.67 55.8154 89.8941 53.5898 92.6034 53.5898C95.333 53.5898 97.5369 55.8154 97.5369 58.5469C97.5369 61.2582 95.333 63.4636 92.6034 63.4636ZM63.3666 63.4636C60.6573 63.4636 58.4332 61.2582 58.4332 58.5469C58.4332 55.8154 60.6573 53.5898 63.3666 53.5898C66.0962 53.5898 68.3001 55.8154 68.3001 58.5469C68.3001 61.2582 66.0962 63.4636 63.3666 63.4636Z" fill="#F8C30F"/>
<path d="M419 58.5264C419 59.8618 418.474 61.096 417.564 62.0267C416.634 62.9575 415.401 63.4835 414.067 63.4835C412.732 63.4835 411.499 62.9372 410.589 62.0267C409.436 60.8734 408.911 59.1536 409.234 57.5552C409.315 57.2517 409.416 56.9279 409.537 56.6447C409.659 56.3412 409.8 56.0579 409.982 55.7746C410.144 55.5116 410.366 55.2486 410.609 55.026C411.519 54.1155 412.813 53.5692 414.087 53.5692C415.361 53.5692 416.655 54.0953 417.585 55.026C418.495 55.9567 419.02 57.191 419.02 58.5061L419 58.5264Z" fill="#F8C30F"/>
<path d="M384.85 36.1686C382.141 36.1686 379.917 33.9632 379.917 31.2317C379.917 28.5204 382.141 26.2947 384.85 26.2947C387.58 26.2947 389.783 28.5204 389.783 31.2317C389.783 33.9632 387.58 36.1686 384.85 36.1686ZM355.613 36.1686C352.904 36.1686 350.68 33.9632 350.68 31.2317C350.68 28.5204 352.904 26.2947 355.613 26.2947C358.343 26.2947 360.547 28.5204 360.547 31.2317C360.547 33.9632 358.343 36.1686 355.613 36.1686ZM326.397 36.1686C323.687 36.1686 321.463 33.9632 321.463 31.2317C321.463 28.5204 323.687 26.2947 326.397 26.2947C329.126 26.2947 331.33 28.5204 331.33 31.2317C331.33 33.9632 329.126 36.1686 326.397 36.1686ZM297.16 36.1686C294.45 36.1686 292.226 33.9632 292.226 31.2317C292.226 28.5204 294.45 26.2947 297.16 26.2947C299.889 26.2947 302.093 28.5204 302.093 31.2317C302.093 33.9632 299.889 36.1686 297.16 36.1686ZM267.943 36.1686C265.234 36.1686 263.01 33.9632 263.01 31.2317C263.01 28.5204 265.234 26.2947 267.943 26.2947C270.673 26.2947 272.877 28.5204 272.877 31.2317C272.877 33.9632 270.673 36.1686 267.943 36.1686ZM238.727 36.1686C236.017 36.1686 233.793 33.9632 233.793 31.2317C233.793 28.5204 236.017 26.2947 238.727 26.2947C241.456 26.2947 243.66 28.5204 243.66 31.2317C243.66 33.9632 241.456 36.1686 238.727 36.1686ZM209.49 36.1686C206.781 36.1686 204.556 33.9632 204.556 31.2317C204.556 28.5204 206.781 26.2947 209.49 26.2947C212.219 26.2947 214.423 28.5204 214.423 31.2317C214.423 33.9632 212.219 36.1686 209.49 36.1686ZM180.273 36.1686C177.564 36.1686 175.34 33.9632 175.34 31.2317C175.34 28.5204 177.564 26.2947 180.273 26.2947C183.003 26.2947 185.207 28.5204 185.207 31.2317C185.207 33.9632 183.003 36.1686 180.273 36.1686ZM151.057 36.1686C148.347 36.1686 146.123 33.9632 146.123 31.2317C146.123 28.5204 148.347 26.2947 151.057 26.2947C153.786 26.2947 155.99 28.5204 155.99 31.2317C155.99 33.9632 153.786 36.1686 151.057 36.1686ZM121.82 36.1686C119.111 36.1686 116.886 33.9632 116.886 31.2317C116.886 28.5204 119.111 26.2947 121.82 26.2947C124.55 26.2947 126.753 28.5204 126.753 31.2317C126.753 33.9632 124.55 36.1686 121.82 36.1686ZM92.6236 36.1686C89.894 36.1686 87.6699 33.9632 87.6699 31.2317C87.6699 28.5204 89.894 26.2947 92.6236 26.2947C95.3329 26.2947 97.5368 28.5204 97.5368 31.2317C97.5368 33.9632 95.3329 36.1686 92.6236 36.1686ZM63.3666 36.1686C60.6572 36.1686 58.4331 33.9632 58.4331 31.2317C58.4331 28.5204 60.6572 26.2947 63.3666 26.2947C66.0962 26.2947 68.3 28.5204 68.3 31.2317C68.3 33.9632 66.0962 36.1686 63.3666 36.1686ZM34.15 36.1686C31.4407 36.1686 29.2166 33.9632 29.2166 31.2317C29.2166 28.5204 31.4407 26.2947 34.15 26.2947C36.8796 26.2947 39.0835 28.5204 39.0835 31.2317C39.0835 33.9632 36.8796 36.1686 34.15 36.1686Z" fill="#F8C30F"/>
<path d="M419 31.2317C419 32.5671 418.474 33.8013 417.544 34.732C417.322 34.9546 417.079 35.1772 416.796 35.339C416.533 35.5009 416.25 35.6628 415.967 35.7842C415.664 35.9056 415.34 36.0067 415.057 36.0877C414.734 36.1281 414.39 36.1686 414.067 36.1686C413.743 36.1686 413.42 36.1484 413.096 36.0674C412.773 36.027 412.489 35.9258 412.186 35.8044C411.883 35.683 411.6 35.5414 411.317 35.3593C411.054 35.1569 410.791 34.9546 410.569 34.7523C410.346 34.5297 410.124 34.2667 409.942 33.9834C409.76 33.7204 409.618 33.4371 409.497 33.1538C409.376 32.8503 409.275 32.5468 409.194 32.2231C409.072 31.5959 409.072 30.9484 409.194 30.3009C409.275 29.9772 409.376 29.6737 409.497 29.3904C409.618 29.0869 409.76 28.8037 409.942 28.5204C410.104 28.2574 410.326 27.9943 410.569 27.7718C410.791 27.5492 411.034 27.3266 411.317 27.1648C411.58 26.9827 411.883 26.841 412.186 26.7196C412.489 26.5982 412.773 26.4971 413.096 26.4161C413.42 26.3554 413.743 26.315 414.067 26.315C414.39 26.315 414.734 26.3554 415.057 26.4161C415.361 26.4971 415.664 26.578 415.967 26.6792C416.27 26.8006 416.533 26.9827 416.796 27.1445C417.059 27.3064 417.322 27.5492 417.544 27.7515C418.009 28.2169 418.373 28.7632 418.636 29.35C418.879 29.9367 419 30.5842 419 31.2317Z" fill="#F8C30F"/>
<path d="M9.86712 3.93693C9.86712 4.26066 9.8469 4.60462 9.78624 4.92836C9.70536 5.23186 9.60427 5.53536 9.48295 5.83886C9.36164 6.14236 9.22011 6.42562 9.03813 6.70889C8.83594 6.97192 8.63375 7.23495 8.43156 7.45752C7.5217 8.36802 6.22768 8.89408 4.93366 8.89408C3.63964 8.89408 2.36584 8.36802 1.45598 7.45752C1.23357 7.23495 1.01116 6.99215 0.849407 6.70889C0.667435 6.44586 0.525901 6.14236 0.404587 5.83886C0.283273 5.53536 0.182177 5.23186 0.101301 4.92836C-0.0200137 4.28089 -0.0200137 3.61319 0.101301 2.98596C0.182177 2.68246 0.283273 2.37896 0.404587 2.07546C0.525901 1.77196 0.667435 1.4887 0.849407 1.20543C1.03138 0.942397 1.25379 0.679364 1.45598 0.456798C2.36584 -0.453701 3.63964 -1 4.93366 -1C6.22768 -1 7.5217 -0.453701 8.43156 0.456798C8.65397 0.679364 8.85616 0.922164 9.03813 1.20543C9.22011 1.46846 9.36164 1.77196 9.48295 2.07546C9.60427 2.37896 9.70536 2.68246 9.78624 2.98596C9.82668 3.30969 9.86712 3.63343 9.86712 3.95716V3.93693Z" fill="#F8C30F"/>
<path d="M384.85 8.87385C382.141 8.87385 379.917 6.66842 379.917 3.93693C379.917 1.22566 382.141 -1 384.85 -1C387.58 -1 389.783 1.22566 389.783 3.93693C389.783 6.66842 387.58 8.87385 384.85 8.87385ZM355.613 8.87385C352.904 8.87385 350.68 6.66842 350.68 3.93693C350.68 1.22566 352.904 -1 355.613 -1C358.343 -1 360.547 1.22566 360.547 3.93693C360.547 6.66842 358.343 8.87385 355.613 8.87385ZM326.397 8.87385C323.687 8.87385 321.463 6.66842 321.463 3.93693C321.463 1.22566 323.687 -1 326.397 -1C329.126 -1 331.33 1.22566 331.33 3.93693C331.33 6.66842 329.126 8.87385 326.397 8.87385ZM297.16 8.87385C294.451 8.87385 292.226 6.66842 292.226 3.93693C292.226 1.22566 294.451 -1 297.16 -1C299.889 -1 302.093 1.22566 302.093 3.93693C302.093 6.66842 299.889 8.87385 297.16 8.87385ZM267.943 8.87385C265.234 8.87385 263.01 6.66842 263.01 3.93693C263.01 1.22566 265.234 -1 267.943 -1C270.673 -1 272.877 1.22566 272.877 3.93693C272.877 6.66842 270.673 8.87385 267.943 8.87385ZM238.727 8.87385C236.017 8.87385 233.793 6.66842 233.793 3.93693C233.793 1.22566 236.017 -1 238.727 -1C241.456 -1 243.66 1.22566 243.66 3.93693C243.66 6.66842 241.456 8.87385 238.727 8.87385ZM209.49 8.87385C206.781 8.87385 204.556 6.66842 204.556 3.93693C204.556 1.22566 206.781 -1 209.49 -1C212.22 -1 214.423 1.22566 214.423 3.93693C214.423 6.66842 212.22 8.87385 209.49 8.87385ZM180.273 8.87385C177.564 8.87385 175.34 6.66842 175.34 3.93693C175.34 1.22566 177.564 -1 180.273 -1C183.003 -1 185.207 1.22566 185.207 3.93693C185.207 6.66842 183.003 8.87385 180.273 8.87385ZM151.057 8.87385C148.347 8.87385 146.123 6.66842 146.123 3.93693C146.123 1.22566 148.347 -1 151.057 -1C153.786 -1 155.99 1.22566 155.99 3.93693C155.99 6.66842 153.786 8.87385 151.057 8.87385ZM121.82 8.87385C119.111 8.87385 116.887 6.66842 116.887 3.93693C116.887 1.22566 119.111 -1 121.82 -1C124.55 -1 126.753 1.22566 126.753 3.93693C126.753 6.66842 124.55 8.87385 121.82 8.87385ZM92.6236 8.87385C89.8941 8.87385 87.67 6.66842 87.67 3.93693C87.67 1.22566 89.8941 -1 92.6236 -1C95.333 -1 97.5369 1.22566 97.5369 3.93693C97.5369 6.66842 95.333 8.87385 92.6236 8.87385ZM63.3666 8.87385C60.6573 8.87385 58.4332 6.66842 58.4332 3.93693C58.4332 1.22566 60.6573 -1 63.3666 -1C66.0962 -1 68.3001 1.22566 68.3001 3.93693C68.3001 6.66842 66.0962 8.87385 63.3666 8.87385ZM34.1501 8.87385C31.4407 8.87385 29.2166 6.66842 29.2166 3.93693C29.2166 1.22566 31.4407 -1 34.1501 -1C36.8796 -1 39.1037 1.22566 39.1037 3.93693C39.1037 6.66842 36.8796 8.87385 34.1501 8.87385Z" fill="#F8C30F"/>
<path d="M419 3.93693C419 5.27232 418.474 6.50656 417.544 7.43729C416.634 8.36802 415.401 8.87385 414.067 8.87385C413.743 8.87385 413.42 8.85362 413.096 8.77269C412.773 8.73222 412.489 8.63105 412.186 8.50965C411.883 8.38825 411.6 8.24662 411.317 8.06452C411.054 7.86219 410.791 7.65985 410.569 7.45752C410.346 7.23495 410.124 6.99215 409.942 6.70889C409.76 6.44586 409.618 6.14236 409.497 5.83886C409.376 5.53536 409.275 5.23186 409.194 4.92836C409.072 4.28089 409.072 3.61319 409.194 2.98596C409.275 2.68246 409.376 2.35873 409.497 2.07546C409.618 1.77196 409.76 1.4887 409.942 1.20543C410.104 0.942397 410.326 0.679364 410.569 0.456798C410.811 0.234231 411.034 0.0116651 411.317 -0.150201C411.58 -0.312068 411.883 -0.473934 412.186 -0.595334C412.489 -0.716734 412.773 -0.8179 413.096 -0.898833C413.42 -0.9393 413.743 -1 414.067 -1C414.41 -1 414.734 -0.9393 415.057 -0.898833C415.361 -0.8179 415.664 -0.716734 415.967 -0.595334C416.27 -0.473934 416.533 -0.332301 416.796 -0.150201C417.059 0.0318984 417.322 0.254465 417.544 0.456798C418.009 0.922164 418.373 1.46846 418.636 2.05523C418.879 2.64199 419 3.28946 419 3.93693Z" fill="#F8C30F"/>
</g>
<defs>
<clipPath id="clip0_17_36">
<rect width="419" height="392" fill="white" transform="translate(0 -1)"/>
</clipPath>
</defs>
</svg>
