<svg width="190" height="105" viewBox="0 0 190 105" fill="none" xmlns="http://www.w3.org/2000/svg">
<g clip-path="url(#clip0_2_107)">
<path d="M8.94869 63.0602L10.2631 63.499L9.47988 65.8435L8.16549 65.4047L7.29166 68.0194L8.98494 68.5851L9.73913 66.3258L11.6409 66.9604L10.8577 69.3049L9.34391 68.799L8.78915 70.4618L10.2232 70.9405L10.7381 69.3974L12.3806 69.9468L11.8657 71.4899L14.1899 72.2659L14.712 70.7029L16.6483 71.3502L16.1261 72.9132L18.0225 73.5479L18.5373 72.0048L20.3322 72.605L19.8173 74.148L21.7898 74.8062L22.3735 73.0583L24.0614 73.6222L23.4776 75.3702L25.8779 76.1716L26.3928 74.6285L27.9991 75.1653L27.4842 76.7083L29.2409 77.2958L29.7957 75.6331L28.6517 75.2505L29.4349 72.906L30.5789 73.2886L33.166 65.5479L31.8335 65.1019L32.6166 62.7574L33.9492 63.2034L47.0749 23.9164C43.3728 26.8484 38.351 27.9145 33.5956 26.3117C28.998 24.7613 25.713 21.0769 24.4403 16.6998M31.8715 65.3177L31.0883 67.6622L29.1866 67.0275L29.9462 64.7537L28.2076 64.1717L28.9908 61.8272L30.8925 62.4618L30.1329 64.7356L31.8715 65.3177ZM23.115 59.1745L23.8982 56.83L25.8 57.4646L25.0168 59.8091L23.115 59.1745ZM23.7332 62.5978L22.95 64.9423L21.0483 64.3077L21.8315 61.9632L23.7332 62.5978ZM24.6633 60.3803L26.565 61.0149L25.7819 63.3594L23.8801 62.7248L24.6633 60.3803ZM27.0545 66.3131L28.9563 66.9477L28.1731 69.2922L26.2714 68.6576L27.0545 66.3131ZM36.228 45.7603L37.8198 46.2915L37.1291 48.3568L35.5373 47.8255L36.228 45.7603ZM33.4705 54.2099L35.0623 54.7411L34.3716 56.8064L32.7798 56.2751L33.4705 54.2099ZM31.6377 59.6967L33.5394 60.3313L32.7562 62.6758L30.8545 62.0412L31.6377 59.6967ZM29.8918 58.5797L27.99 57.9451L28.7732 55.6006L30.675 56.2352L29.8918 58.5797ZM27.8667 50.0413L29.4585 50.5725L28.7678 52.6378L27.176 52.1065L27.8667 50.0413ZM26.3421 54.7883L24.4403 54.1537L25.2235 51.8092L27.1252 52.4438L26.3421 54.7883ZM23.4142 44.0649L25.3159 44.6995L24.5327 47.044L22.631 46.4094L23.4142 44.0649ZM22.4859 53.7547L24.3877 54.3894L23.6045 56.7339L21.7027 56.0992L22.4859 53.7547ZM22.417 59.3504L21.6338 61.6948L19.7321 61.0602L20.4699 58.8499L18.851 58.3096L19.6342 55.9651L21.5359 56.5997L20.7981 58.81L22.417 59.3504ZM19.6722 61.2415L18.889 63.586L16.9873 62.9514L17.7705 60.6069L19.6722 61.2415ZM20.0566 55.8273L18.1548 55.1926L18.938 52.8481L20.8398 53.4828L20.0566 55.8273ZM18.7694 52.5127L16.8676 51.8781L17.6508 49.5336L19.5526 50.1682L18.7694 52.5127ZM16.4053 43.6062L18.3071 44.2408L17.5239 46.5853L15.6221 45.9506L16.4053 43.6062ZM14.8335 51.4755L16.7353 52.1102L15.9521 54.4547L14.0503 53.82L14.8335 51.4755ZM16.3038 59.8907L15.5206 62.2352L13.6188 61.6006L14.402 59.2561L16.3038 59.8907ZM13.1094 56.2407L15.0112 56.8753L14.228 59.2198L12.3262 58.5852L13.1094 56.2407ZM11.4252 61.2814L13.3269 61.9161L12.5438 64.2606L10.642 63.6259L11.4252 61.2814ZM13.443 67.3068L11.5412 66.6721L12.3244 64.3276L14.2262 64.9623L13.443 67.3068ZM14.3857 65.0167L15.1689 62.6722L17.0707 63.3068L16.2875 65.6513L14.3857 65.0167ZM15.5623 68.0157L16.3455 65.6712L18.2473 66.3059L17.4641 68.6504L15.5623 68.0157ZM18.6661 71.8217L16.7643 71.1871L17.5475 68.8426L19.4492 69.4772L18.6661 71.8217ZM19.5381 69.3448L20.3213 67.0003L22.0436 67.5751L22.8268 65.2306L24.7285 65.8653L23.9453 68.2097L22.223 67.635L21.4399 69.9795L19.5381 69.3448ZM22.408 72.9894L20.5062 72.3548L21.2894 70.0103L23.1912 70.6449L22.408 72.9894ZM23.4232 70.5035L24.2064 68.159L26.1082 68.7936L25.325 71.1381L23.4232 70.5035ZM26.5415 74.5451L24.6687 73.9196L25.4519 71.5751L27.3247 72.2006L26.5415 74.5451ZM27.5223 72.0121L28.3055 69.6676L30.2072 70.3022L29.4241 72.6467L27.5223 72.0121Z" fill="#1E2764"/>
<path d="M18.9031 102.363L16.6145 101.598L15.7336 104.234L18.0222 104.999L18.9031 102.363Z" fill="#1E2764"/>
<path d="M8.5248 96.4749L6.23621 95.7099L5.35526 98.3462L7.64386 99.1112L8.5248 96.4749Z" fill="#1E2764"/>
<path d="M3.1654 92.8228L0.876801 92.0578L-0.00414648 94.6942L2.28445 95.4591L3.1654 92.8228Z" fill="#1E2764"/>
<path d="M6.16952 86.5968L3.88092 85.8318L2.99997 88.4681L5.28857 89.2331L6.16952 86.5968Z" fill="#1E2764"/>
<path d="M7.38692 89.423L5.09833 88.658L4.21738 91.2943L6.50598 92.0593L7.38692 89.423Z" fill="#1E2764"/>
<path d="M9.99606 87.8747L7.70746 87.1097L6.82651 89.746L9.11511 90.511L9.99606 87.8747Z" fill="#1E2764"/>
<path d="M13.1398 89.1829L10.8512 88.4179L9.97025 91.0542L12.2588 91.8192L13.1398 89.1829Z" fill="#1E2764"/>
<path d="M14.1075 92.0646L11.8189 91.2997L10.938 93.936L13.2266 94.701L14.1075 92.0646Z" fill="#1E2764"/>
<path d="M15.0321 94.7919L12.7435 94.0269L11.8625 96.6633L14.1511 97.4283L15.0321 94.7919Z" fill="#1E2764"/>
<path d="M18.735 91.3316L16.4464 90.5667L15.5655 93.203L17.8541 93.968L18.735 91.3316Z" fill="#1E2764"/>
<path d="M22.2736 87.1429L19.985 86.3779L19.1041 89.0143L21.3927 89.7792L22.2736 87.1429Z" fill="#1E2764"/>
<path d="M25.4768 88.5385L23.0455 87.7259L22.1645 90.3622L24.5958 91.1749L25.4768 88.5385Z" fill="#1E2764"/>
<path d="M24.468 85.7126L22.1794 84.9476L21.2984 87.584L23.587 88.3489L24.468 85.7126Z" fill="#1E2764"/>
<path d="M23.2564 83.0059L20.9678 82.2409L20.0868 84.8773L22.3754 85.6422L23.2564 83.0059Z" fill="#1E2764"/>
<path d="M25.8923 81.4453L23.6037 80.6803L22.7227 83.3166L25.0113 84.0816L25.8923 81.4453Z" fill="#1E2764"/>
<path d="M22.0593 80.1639L19.7707 79.3989L18.8898 82.0352L21.1784 82.8002L22.0593 80.1639Z" fill="#1E2764"/>
<path d="M19.4875 81.4455L17.1989 80.6805L16.3179 83.3168L18.6065 84.0818L19.4875 81.4455Z" fill="#1E2764"/>
<path d="M16.999 83.1004L14.7104 82.3354L13.8295 84.9718L16.1181 85.7368L16.999 83.1004Z" fill="#1E2764"/>
<path d="M14.3191 84.7152L12.0305 83.9503L11.1496 86.5866L13.4382 87.3516L14.3191 84.7152Z" fill="#1E2764"/>
<path d="M13.2805 81.8569L10.9919 81.0919L10.1109 83.7283L12.3995 84.4933L13.2805 81.8569Z" fill="#1E2764"/>
<path d="M10.2528 80.8459L7.96423 80.081L7.08329 82.7173L9.37188 83.4823L10.2528 80.8459Z" fill="#1E2764"/>
<path d="M7.6242 82.245L5.3356 81.48L4.45465 84.1163L6.74325 84.8813L7.6242 82.245Z" fill="#1E2764"/>
<path d="M8.81915 77.972L6.53055 77.207L5.6496 79.8434L7.9382 80.6083L8.81915 77.972Z" fill="#1E2764"/>
<path d="M18.6291 79.0195L16.3405 78.2545L15.4595 80.8908L17.7481 81.6558L18.6291 79.0195Z" fill="#1E2764"/>
<path d="M14.844 77.6368L12.5554 76.8719L11.6744 79.5082L13.963 80.2732L14.844 77.6368Z" fill="#1E2764"/>
<path d="M7.50884 74.9749L5.22025 74.2099L4.3393 76.8462L6.6279 77.6112L7.50884 74.9749Z" fill="#1E2764"/>
<path d="M10.315 73.4948L8.02637 72.7299L7.14542 75.3662L9.43402 76.1312L10.315 73.4948Z" fill="#1E2764"/>
<path d="M13.844 74.6746L11.5554 73.9096L10.6744 76.5459L12.963 77.3109L13.844 74.6746Z" fill="#1E2764"/>
<path d="M17.4646 76.0471L15.176 75.2821L14.295 77.9184L16.5836 78.6834L17.4646 76.0471Z" fill="#1E2764"/>
<path d="M21.0913 77.3752L18.8027 76.6102L17.9218 79.2466L20.2104 80.0115L21.0913 77.3752Z" fill="#1E2764"/>
<path d="M19.971 74.1989L17.6824 73.4339L16.7422 76.2473L19.0308 77.0123L19.971 74.1989Z" fill="#1E2764"/>
<path d="M22.5916 72.6597L20.303 71.8947L19.3629 74.7081L21.6515 75.4731L22.5916 72.6597Z" fill="#1E2764"/>
<path d="M26.3925 74.607L24.1039 73.842L23.4091 75.9212L25.6977 76.6862L26.3925 74.607Z" fill="#1E2764"/>
<path d="M29.8024 75.5919L27.9368 74.9683L27.3133 76.8342L29.1789 77.4578L29.8024 75.5919Z" fill="#1E2764"/>
<path d="M12.7551 71.7873L10.4665 71.0223L9.52636 73.8358L11.815 74.6008L12.7551 71.7873Z" fill="#1E2764"/>
<path d="M8.99444 70.5308L6.70584 69.7658L5.76571 72.5793L8.0543 73.3443L8.99444 70.5308Z" fill="#1E2764"/>
<path d="M23.8583 75.5091L21.5697 74.7441L20.633 77.5473L22.9216 78.3123L23.8583 75.5091Z" fill="#1E2764"/>
<path d="M27.4762 76.7082L25.1876 75.9432L24.2475 78.7566L26.5361 79.5216L27.4762 76.7082Z" fill="#1E2764"/>
<path d="M28.4249 79.712L26.1363 78.947L25.2554 81.5834L27.544 82.3483L28.4249 79.712Z" fill="#1E2764"/>
<path d="M21.322 95.1274L19.0334 94.3624L18.1525 96.9988L20.4411 97.7637L21.322 95.1274Z" fill="#1E2764"/>
<path d="M49.8831 16.3696C52.0822 9.84144 48.6614 2.79583 42.2424 0.632773C35.8234 -1.53028 28.8371 2.00833 26.6379 8.53648C24.4387 15.0646 27.8596 22.1103 34.2785 24.2733C40.6975 26.4364 47.6839 22.8977 49.8831 16.3696Z" fill="#F8C30F"/>
<path d="M32.1689 85.8923L33.4325 79.8597H34.2356L32.9774 85.8923H32.1707H32.1689Z" fill="#1E2764"/>
<path d="M34.3081 85.8923L35.2219 81.5224H35.8963L35.7349 82.284C36.0286 81.9848 36.3024 81.7672 36.558 81.6294C36.8136 81.4916 37.0729 81.4245 37.3394 81.4245C37.6929 81.4245 37.9703 81.5206 38.1733 81.7128C38.3746 81.905 38.4761 82.1607 38.4761 82.4816C38.4761 82.643 38.4398 82.8986 38.3691 83.2468L37.8144 85.8923H37.0692L37.6494 83.1235C37.7074 82.8551 37.7364 82.6557 37.7364 82.5269C37.7364 82.3819 37.6856 82.264 37.5859 82.1734C37.4862 82.0827 37.3412 82.0374 37.1526 82.0374C36.7719 82.0374 36.4311 82.1752 36.1338 82.449C35.8364 82.7228 35.6171 83.1942 35.4775 83.8597L35.0533 85.8923H34.3081Z" fill="#1E2764"/>
<path d="M39.0653 84.3982L39.8104 84.3528C39.8104 84.5668 39.843 84.7499 39.9083 84.9004C39.9736 85.0509 40.095 85.1742 40.2727 85.2703C40.4504 85.3664 40.6552 85.4136 40.8927 85.4136C41.2227 85.4136 41.4692 85.3483 41.6342 85.2159C41.7992 85.0836 41.8808 84.9295 41.8808 84.7518C41.8808 84.623 41.8318 84.5015 41.7321 84.3855C41.6306 84.2694 41.3822 84.128 40.9888 83.9594C40.5954 83.7908 40.3434 83.6711 40.2346 83.604C40.0515 83.4916 39.9119 83.3592 39.8195 83.2069C39.727 83.0546 39.6799 82.8805 39.6799 82.6829C39.6799 82.3366 39.8176 82.041 40.0914 81.7944C40.3652 81.5478 40.7495 81.4245 41.2426 81.4245C41.7919 81.4245 42.2089 81.5514 42.4954 81.8053C42.7818 82.0591 42.9305 82.3928 42.9413 82.808L42.2125 82.8569C42.2017 82.594 42.1074 82.3855 41.9334 82.2314C41.7575 82.0773 41.5091 82.0011 41.1882 82.0011C40.9308 82.0011 40.7296 82.0609 40.5882 82.1788C40.4449 82.2967 40.3742 82.4236 40.3742 82.5614C40.3742 82.6992 40.4359 82.8189 40.5591 82.924C40.6407 82.9947 40.8547 83.1054 41.1973 83.254C41.7684 83.5006 42.1273 83.6965 42.276 83.8379C42.5117 84.0664 42.6295 84.342 42.6295 84.6684C42.6295 84.8859 42.5624 85.0981 42.4301 85.3066C42.2978 85.5151 42.0947 85.6819 41.8209 85.8071C41.5472 85.9322 41.2263 85.9938 40.8565 85.9938C40.3525 85.9938 39.9228 85.8687 39.5693 85.6185C39.2158 85.3683 39.049 84.9621 39.0671 84.4L39.0653 84.3982Z" fill="#1E2764"/>
<path d="M44.9483 85.2867L44.825 85.8959C44.6473 85.9431 44.4733 85.9666 44.3065 85.9666C44.011 85.9666 43.7735 85.8941 43.5995 85.749C43.4671 85.6402 43.4019 85.4897 43.4019 85.3012C43.4019 85.2051 43.4381 84.9839 43.5088 84.6393L44.04 82.1008H43.4508L43.5705 81.5242H44.1597L44.3863 80.4508L45.2384 79.9359L44.9048 81.5242H45.6372L45.5139 82.1008H44.7851L44.2793 84.516C44.2159 84.8225 44.185 85.0074 44.185 85.0673C44.185 85.1543 44.2104 85.2232 44.2612 85.2685C44.312 85.3157 44.3953 85.3392 44.5096 85.3392C44.6745 85.3392 44.8214 85.3229 44.9501 85.2903L44.9483 85.2867Z" fill="#1E2764"/>
<path d="M45.5212 85.8923L46.4349 81.5224H47.18L46.2663 85.8923H45.5212ZM46.6071 80.7029L46.7848 79.8597H47.5263L47.3486 80.7029H46.6071Z" fill="#1E2764"/>
<path d="M49.1616 85.2867L49.0383 85.8959C48.8606 85.9431 48.6866 85.9666 48.5198 85.9666C48.2243 85.9666 47.9868 85.8941 47.8127 85.749C47.6804 85.6402 47.6151 85.4897 47.6151 85.3012C47.6151 85.2051 47.6514 84.9839 47.7221 84.6393L48.2533 82.1008H47.6641L47.7837 81.5242H48.3729L48.5995 80.4508L49.4516 79.9359L49.118 81.5242H49.8505L49.7272 82.1008H48.9984L48.4926 84.516C48.4291 84.8225 48.3983 85.0074 48.3983 85.0673C48.3983 85.1543 48.4237 85.2232 48.4744 85.2685C48.5252 85.3157 48.6086 85.3392 48.7228 85.3392C48.8878 85.3392 49.0346 85.3229 49.1634 85.2903L49.1616 85.2867Z" fill="#1E2764"/>
<path d="M52.7457 85.1017C52.2218 85.6947 51.6852 85.9902 51.1377 85.9902C50.8005 85.9902 50.5285 85.8941 50.32 85.7001C50.1133 85.5061 50.01 85.2704 50.01 84.9911C50.01 84.808 50.0571 84.4925 50.1496 84.0446L50.6754 81.5224H51.4205L50.8367 84.3166C50.7878 84.5505 50.7624 84.73 50.7624 84.8606C50.7624 85.0256 50.8131 85.1543 50.9129 85.245C51.0126 85.3374 51.1612 85.3828 51.3552 85.3828C51.5637 85.3828 51.7668 85.332 51.9662 85.2305C52.1656 85.1289 52.336 84.9911 52.4811 84.8189C52.6243 84.6466 52.7421 84.4417 52.8328 84.206C52.8926 84.0555 52.9633 83.7908 53.0431 83.4118L53.4383 81.5224H54.1834L53.2697 85.8923H52.5826L52.7476 85.1017H52.7457Z" fill="#1E2764"/>
<path d="M56.1903 85.2867L56.0671 85.8959C55.8894 85.9431 55.7153 85.9666 55.5485 85.9666C55.253 85.9666 55.0155 85.8941 54.8415 85.749C54.7092 85.6402 54.6439 85.4897 54.6439 85.3012C54.6439 85.2051 54.6801 84.9839 54.7509 84.6393L55.282 82.1008H54.6928L54.8125 81.5242H55.4017L55.6283 80.4508L56.4804 79.9359L56.1468 81.5242H56.8792L56.756 82.1008H56.0272L55.5214 84.516C55.4579 84.8225 55.4271 85.0074 55.4271 85.0673C55.4271 85.1543 55.4525 85.2232 55.5032 85.2685C55.554 85.3157 55.6374 85.3392 55.7516 85.3392C55.9166 85.3392 56.0634 85.3229 56.1921 85.2903L56.1903 85.2867Z" fill="#1E2764"/>
<path d="M56.9228 84.2332C56.9228 83.3792 57.1729 82.6738 57.6751 82.1135C58.0885 81.653 58.6324 81.4227 59.305 81.4227C59.8325 81.4227 60.2568 81.5877 60.5777 81.9159C60.9004 82.2459 61.0617 82.6901 61.0617 83.2486C61.0617 83.7509 60.9602 84.2169 60.7571 84.6502C60.5541 85.0818 60.2658 85.4136 59.8905 85.6439C59.5153 85.8742 59.1219 85.9902 58.7085 85.9902C58.3677 85.9902 58.0595 85.9177 57.7803 85.7726C57.5011 85.6276 57.289 85.4209 57.1421 85.1561C56.9953 84.8896 56.9228 84.5831 56.9228 84.235V84.2332ZM57.6679 84.1589C57.6679 84.5705 57.7658 84.8823 57.9634 85.0945C58.161 85.3066 58.4112 85.4136 58.7158 85.4136C58.8753 85.4136 59.033 85.381 59.1889 85.3175C59.3449 85.254 59.4899 85.1543 59.6259 85.0238C59.76 84.8914 59.8742 84.7427 59.9703 84.5741C60.0646 84.4054 60.1407 84.2241 60.1987 84.0283C60.284 83.7563 60.3257 83.4952 60.3257 83.2468C60.3257 82.8515 60.2259 82.5451 60.0265 82.3275C59.8271 82.1099 59.5769 82.0011 59.276 82.0011C59.0421 82.0011 58.83 82.0573 58.6378 82.1679C58.4456 82.2785 58.2716 82.4417 58.1175 82.6557C57.9634 82.8697 57.8492 83.1181 57.7767 83.4027C57.7041 83.6874 57.6679 83.9395 57.6679 84.1625V84.1589Z" fill="#1E2764"/>
<path d="M65.4527 85.8923L66.5676 80.5469H64.5879L64.7311 79.8597H69.4792L69.336 80.5469H67.3726L66.2576 85.8923H65.4508H65.4527Z" fill="#1E2764"/>
<path d="M71.4009 84.4054L72.1243 84.4798C72.0191 84.8388 71.7798 85.1815 71.4064 85.5043C71.0311 85.8288 70.5851 85.9902 70.0666 85.9902C69.7421 85.9902 69.4466 85.9159 69.1764 85.7654C68.9063 85.6167 68.6996 85.3991 68.56 85.1126C68.4186 84.8279 68.3479 84.5015 68.3479 84.1371C68.3479 83.6602 68.4585 83.196 68.6797 82.7482C68.9009 82.3003 69.1855 81.9667 69.5372 81.7491C69.8889 81.5315 70.2678 81.4227 70.6776 81.4227C71.1979 81.4227 71.6149 81.5841 71.9267 81.9086C72.2385 82.2332 72.3944 82.6738 72.3944 83.2341C72.3944 83.4481 72.3745 83.6675 72.3364 83.8923H69.1184C69.1076 83.9775 69.1021 84.0537 69.1021 84.1226C69.1021 84.5306 69.1964 84.8443 69.3831 85.0582C69.5717 85.274 69.8001 85.381 70.072 85.381C70.3277 85.381 70.5779 85.2976 70.8244 85.1307C71.071 84.9639 71.2631 84.7228 71.4009 84.4073V84.4054ZM69.2381 83.323H71.691C71.6928 83.2468 71.6946 83.1906 71.6946 83.158C71.6946 82.7844 71.6022 82.4998 71.4154 82.3003C71.2287 82.1008 70.9894 82.0011 70.6957 82.0011C70.3766 82.0011 70.0865 82.1117 69.8255 82.3311C69.5626 82.5505 69.3686 82.8805 69.2399 83.323H69.2381Z" fill="#1E2764"/>
<path d="M75.8952 84.2985L76.6403 84.3764C76.4536 84.9222 76.1889 85.3284 75.8444 85.5931C75.5 85.8578 75.1084 85.9902 74.6697 85.9902C74.1947 85.9902 73.8103 85.8361 73.5148 85.5296C73.2193 85.2232 73.0724 84.7935 73.0724 84.2423C73.0724 83.7654 73.1667 83.2958 73.3571 82.8352C73.5474 82.3746 73.8176 82.0247 74.1693 81.7835C74.521 81.5442 74.9235 81.4227 75.3767 81.4227C75.8299 81.4227 76.2179 81.5551 76.4917 81.8198C76.7654 82.0845 76.9032 82.4345 76.9032 82.8715L76.1708 82.9204C76.1671 82.643 76.0874 82.4272 75.9296 82.2695C75.7719 82.1135 75.5634 82.0356 75.306 82.0356C75.0069 82.0356 74.7476 82.1299 74.5282 82.3202C74.3089 82.5088 74.1366 82.7971 74.0116 83.1815C73.8865 83.5677 73.8248 83.9376 73.8248 84.2948C73.8248 84.6521 73.9064 84.9476 74.0714 85.1344C74.2364 85.3211 74.4394 85.4136 74.6805 85.4136C74.9216 85.4136 75.1537 85.3211 75.3731 85.138C75.5943 84.9549 75.7665 84.6738 75.8934 84.2985H75.8952Z" fill="#1E2764"/>
<path d="M77.0918 85.8923L78.0055 81.5224H78.6799L78.5186 82.284C78.8122 81.9848 79.086 81.7672 79.3416 81.6294C79.5973 81.4916 79.8565 81.4245 80.123 81.4245C80.4765 81.4245 80.7539 81.5206 80.957 81.7128C81.1582 81.905 81.2597 82.1607 81.2597 82.4816C81.2597 82.643 81.2235 82.8986 81.1528 83.2468L80.598 85.8923H79.8529L80.433 83.1235C80.491 82.8551 80.52 82.6557 80.52 82.5269C80.52 82.3819 80.4693 82.264 80.3696 82.1734C80.2699 82.0827 80.1248 82.0374 79.9363 82.0374C79.5556 82.0374 79.2147 82.1752 78.9174 82.449C78.6201 82.7228 78.4007 83.1942 78.2611 83.8597L77.8369 85.8923H77.0918Z" fill="#1E2764"/>
<path d="M81.9106 84.2332C81.9106 83.3792 82.1607 82.6738 82.6629 82.1135C83.0763 81.653 83.6202 81.4227 84.2928 81.4227C84.8203 81.4227 85.2446 81.5877 85.5654 81.9159C85.8881 82.2459 86.0495 82.6901 86.0495 83.2486C86.0495 83.7509 85.948 84.2169 85.7449 84.6502C85.5419 85.0818 85.2536 85.4136 84.8783 85.6439C84.5031 85.8742 84.1097 85.9902 83.6963 85.9902C83.3555 85.9902 83.0473 85.9177 82.7681 85.7726C82.4889 85.6276 82.2768 85.4209 82.1299 85.1561C81.9831 84.8896 81.9106 84.5831 81.9106 84.235V84.2332ZM82.6557 84.1589C82.6557 84.5705 82.7536 84.8823 82.9512 85.0945C83.1488 85.3066 83.399 85.4136 83.7036 85.4136C83.8631 85.4136 84.0208 85.381 84.1767 85.3175C84.3326 85.254 84.4777 85.1543 84.6137 85.0238C84.7478 84.8914 84.862 84.7427 84.9581 84.5741C85.0524 84.4054 85.1285 84.2241 85.1865 84.0283C85.2717 83.7563 85.3134 83.4952 85.3134 83.2468C85.3134 82.8515 85.2137 82.5451 85.0143 82.3275C84.8149 82.1099 84.5647 82.0011 84.2638 82.0011C84.0299 82.0011 83.8178 82.0573 83.6256 82.1679C83.4334 82.2785 83.2594 82.4417 83.1053 82.6557C82.9512 82.8697 82.837 83.1181 82.7644 83.4027C82.6919 83.6874 82.6557 83.9395 82.6557 84.1625V84.1589Z" fill="#1E2764"/>
<path d="M86.4084 85.8923L87.6666 79.8597H88.4118L87.1536 85.8923H86.4084Z" fill="#1E2764"/>
<path d="M88.4698 84.2332C88.4698 83.3792 88.72 82.6738 89.2222 82.1135C89.6355 81.653 90.1794 81.4227 90.852 81.4227C91.3777 81.4227 91.8038 81.5877 92.1247 81.9159C92.4474 82.2459 92.6087 82.6901 92.6087 83.2486C92.6087 83.7509 92.5072 84.2169 92.3042 84.6502C92.1011 85.0818 91.8129 85.4136 91.4376 85.6439C91.0623 85.8741 90.6689 85.9902 90.2555 85.9902C89.9147 85.9902 89.6065 85.9177 89.3273 85.7726C89.0481 85.6275 88.836 85.4208 88.6892 85.1561C88.5423 84.8896 88.4698 84.5831 88.4698 84.235V84.2332ZM89.2131 84.1588C89.2131 84.5704 89.311 84.8823 89.5086 85.0945C89.7062 85.3066 89.9564 85.4136 90.261 85.4136C90.4205 85.4136 90.5782 85.3809 90.7342 85.3175C90.8901 85.2522 91.0351 85.1543 91.1711 85.0237C91.3052 84.8914 91.4194 84.7427 91.5155 84.5741C91.6098 84.4054 91.6859 84.2241 91.744 84.0283C91.8292 83.7563 91.8709 83.4952 91.8709 83.2468C91.8709 82.8515 91.7712 82.5451 91.5717 82.3275C91.3723 82.1099 91.1221 82.0011 90.8212 82.0011C90.5873 82.0011 90.3752 82.0573 90.183 82.1679C89.9908 82.2785 89.8168 82.4417 89.6627 82.6557C89.5068 82.8696 89.3944 83.118 89.3219 83.4027C89.2494 83.6874 89.2131 83.9394 89.2131 84.1625V84.1588ZM90.2628 80.9893L91.0369 79.8579H91.9742L90.8792 80.9893H90.2628Z" fill="#1E2764"/>
<path d="M92.9822 86.2858L93.7346 86.3565C93.7291 86.5269 93.7491 86.6538 93.7962 86.7391C93.8433 86.8243 93.9177 86.8896 94.0192 86.9367C94.1533 86.9965 94.3274 87.0274 94.5413 87.0274C94.9909 87.0274 95.3155 86.9113 95.5131 86.6774C95.6418 86.5215 95.7614 86.1806 95.8702 85.6566L95.9445 85.303C95.5584 85.6947 95.1468 85.8923 94.7099 85.8923C94.273 85.8923 93.8977 85.7291 93.6004 85.4045C93.3031 85.08 93.1544 84.6194 93.1544 84.0247C93.1544 83.5333 93.2723 83.0818 93.5061 82.6702C93.74 82.2586 94.0192 81.9485 94.3437 81.7382C94.6682 81.5279 95 81.4227 95.3426 81.4227C95.9155 81.4227 96.3579 81.6947 96.6679 82.2368L96.8166 81.5206H97.5L96.619 85.7382C96.5229 86.2024 96.396 86.5632 96.24 86.8225C96.0841 87.0818 95.8666 87.283 95.5874 87.4245C95.3082 87.5677 94.9873 87.6384 94.6229 87.6384C94.2585 87.6384 93.9702 87.5931 93.7164 87.5024C93.4626 87.4118 93.2741 87.2794 93.149 87.1053C93.0239 86.9313 92.9622 86.7318 92.9622 86.507C92.9622 86.4381 92.9695 86.3637 92.9822 86.2839V86.2858ZM93.9122 83.9576C93.9122 84.2568 93.9412 84.4816 93.9992 84.6321C94.0808 84.8442 94.1987 85.0038 94.351 85.1162C94.5032 85.2287 94.6718 85.283 94.8586 85.283C95.1033 85.283 95.3463 85.1978 95.5874 85.0256C95.8285 84.8533 96.0243 84.5886 96.173 84.2296C96.3216 83.8705 96.3978 83.5278 96.3978 83.2015C96.3978 82.8425 96.2981 82.556 96.0986 82.3438C95.8992 82.1317 95.6545 82.0247 95.3608 82.0247C95.1795 82.0247 95.0036 82.0736 94.8332 82.1716C94.6628 82.2695 94.5051 82.4163 94.3582 82.6158C94.2114 82.8153 94.1008 83.0528 94.0246 83.3302C93.9485 83.6076 93.9122 83.818 93.9122 83.9594V83.9576Z" fill="#1E2764"/>
<path d="M97.6813 85.8923L98.5951 81.5224H99.3402L98.4265 85.8923H97.6813ZM98.7673 80.7029L98.945 79.8597H99.6864L99.5088 80.7029H98.7673Z" fill="#1E2764"/>
<path d="M102.598 84.2985L103.343 84.3764C103.156 84.9222 102.892 85.3284 102.547 85.5931C102.203 85.8578 101.811 85.9902 101.372 85.9902C100.897 85.9902 100.513 85.8361 100.218 85.5296C99.9221 85.2232 99.7753 84.7935 99.7753 84.2423C99.7753 83.7654 99.8695 83.2958 100.06 82.8352C100.25 82.3746 100.52 82.0247 100.872 81.7835C101.224 81.5442 101.626 81.4227 102.08 81.4227C102.533 81.4227 102.921 81.5551 103.194 81.8198C103.468 82.0845 103.606 82.4345 103.606 82.8715L102.874 82.9204C102.87 82.643 102.79 82.4272 102.632 82.2695C102.475 82.1135 102.266 82.0356 102.009 82.0356C101.71 82.0356 101.45 82.1299 101.231 82.3202C101.012 82.5088 100.839 82.7971 100.714 83.1815C100.589 83.5677 100.528 83.9376 100.528 84.2948C100.528 84.6521 100.609 84.9476 100.774 85.1344C100.939 85.3211 101.142 85.4136 101.383 85.4136C101.624 85.4136 101.857 85.3211 102.076 85.138C102.297 84.9549 102.469 84.6738 102.596 84.2985H102.598Z" fill="#1E2764"/>
<path d="M103.927 84.2332C103.927 83.3792 104.177 82.6738 104.679 82.1135C105.093 81.653 105.637 81.4227 106.309 81.4227C106.837 81.4227 107.261 81.5877 107.582 81.9159C107.905 82.2459 108.066 82.6901 108.066 83.2486C108.066 83.7509 107.964 84.2169 107.761 84.6502C107.558 85.0818 107.27 85.4136 106.895 85.6439C106.519 85.8742 106.126 85.9902 105.711 85.9902C105.37 85.9902 105.062 85.9177 104.783 85.7726C104.503 85.6276 104.291 85.4209 104.144 85.1561C103.998 84.8896 103.925 84.5831 103.925 84.235L103.927 84.2332ZM104.672 84.1589C104.672 84.5705 104.77 84.8823 104.968 85.0945C105.165 85.3066 105.415 85.4136 105.72 85.4136C105.879 85.4136 106.037 85.381 106.193 85.3175C106.349 85.2522 106.494 85.1543 106.63 85.0238C106.764 84.8914 106.878 84.7427 106.974 84.5741C107.069 84.4054 107.145 84.2241 107.203 84.0283C107.288 83.7563 107.33 83.4952 107.33 83.2468C107.33 82.8515 107.23 82.5451 107.031 82.3275C106.831 82.1099 106.581 82.0011 106.28 82.0011C106.046 82.0011 105.834 82.0573 105.642 82.1679C105.45 82.2785 105.276 82.4417 105.122 82.6557C104.968 82.8697 104.853 83.1181 104.781 83.4027C104.708 83.6874 104.672 83.9395 104.672 84.1625V84.1589Z" fill="#1E2764"/>
<path d="M113.769 85.2577C113.343 85.7454 112.899 85.9902 112.437 85.9902C112.024 85.9902 111.677 85.8379 111.402 85.5315C111.126 85.225 110.988 84.7826 110.988 84.2006C110.988 83.6675 111.097 83.1815 111.315 82.7409C111.532 82.3003 111.806 81.9703 112.134 81.7509C112.462 81.5315 112.79 81.4209 113.12 81.4209C113.664 81.4209 114.074 81.682 114.351 82.206L114.844 79.8561H115.586L114.328 85.8887H113.641L113.773 85.254L113.769 85.2577ZM111.73 84.0609C111.73 84.3656 111.761 84.6049 111.82 84.7808C111.88 84.9567 111.984 85.1017 112.129 85.2196C112.274 85.3356 112.448 85.3937 112.651 85.3937C112.988 85.3937 113.294 85.2178 113.568 84.8678C113.936 84.4018 114.119 83.8252 114.119 83.1398C114.119 82.7935 114.029 82.5233 113.847 82.3293C113.666 82.1353 113.439 82.0374 113.164 82.0374C112.986 82.0374 112.823 82.0773 112.676 82.1571C112.529 82.2368 112.384 82.371 112.239 82.5632C112.096 82.7536 111.975 82.9966 111.875 83.2903C111.777 83.5841 111.726 83.8415 111.726 84.0646L111.73 84.0609Z" fill="#1E2764"/>
<path d="M115.642 84.2332C115.642 83.3792 115.892 82.6738 116.395 82.1135C116.808 81.653 117.352 81.4227 118.024 81.4227C118.552 81.4227 118.976 81.5877 119.297 81.9159C119.62 82.2459 119.781 82.6901 119.781 83.2486C119.781 83.7509 119.68 84.2169 119.477 84.6502C119.273 85.0818 118.985 85.4136 118.61 85.6439C118.235 85.8742 117.841 85.9902 117.426 85.9902C117.085 85.9902 116.777 85.9177 116.498 85.7726C116.219 85.6276 116.007 85.4209 115.86 85.1561C115.713 84.8896 115.64 84.5831 115.64 84.235L115.642 84.2332ZM116.387 84.1589C116.387 84.5705 116.485 84.8823 116.683 85.0945C116.88 85.3066 117.131 85.4136 117.435 85.4136C117.595 85.4136 117.752 85.381 117.908 85.3175C118.064 85.2522 118.209 85.1543 118.345 85.0238C118.479 84.8914 118.594 84.7427 118.69 84.5741C118.784 84.4054 118.86 84.2241 118.918 84.0283C119.003 83.7563 119.045 83.4952 119.045 83.2468C119.045 82.8515 118.945 82.5451 118.746 82.3275C118.546 82.1099 118.296 82.0011 117.995 82.0011C117.761 82.0011 117.549 82.0573 117.357 82.1679C117.165 82.2785 116.991 82.4417 116.837 82.6557C116.683 82.8697 116.569 83.1181 116.496 83.4027C116.424 83.6874 116.387 83.9395 116.387 84.1625V84.1589Z" fill="#1E2764"/>
<path d="M122.85 83.9413L123.641 83.8669L123.632 84.0773C123.632 84.3112 123.684 84.5233 123.793 84.7173C123.9 84.9113 124.078 85.06 124.324 85.1652C124.571 85.2704 124.865 85.3229 125.205 85.3229C125.688 85.3229 126.056 85.2178 126.31 85.0056C126.563 84.7935 126.69 84.5523 126.69 84.2822C126.69 84.0936 126.623 83.9195 126.489 83.7636C126.351 83.6094 125.978 83.4009 125.365 83.138C124.89 82.9331 124.567 82.7754 124.393 82.6648C124.121 82.4871 123.922 82.293 123.793 82.0827C123.664 81.8724 123.599 81.633 123.599 81.3647C123.599 81.0546 123.684 80.7754 123.855 80.5252C124.025 80.2749 124.274 80.0845 124.602 79.954C124.93 79.8216 125.3 79.7563 125.711 79.7563C126.203 79.7563 126.616 79.8379 126.953 80.0029C127.29 80.168 127.535 80.3874 127.687 80.6611C127.84 80.9349 127.916 81.1979 127.916 81.4463C127.916 81.4717 127.916 81.5115 127.912 81.5696L127.134 81.6312C127.134 81.4608 127.12 81.3284 127.089 81.2323C127.035 81.0655 126.949 80.9241 126.833 80.808C126.717 80.692 126.56 80.5995 126.358 80.5306C126.157 80.4599 125.931 80.4254 125.682 80.4254C125.244 80.4254 124.903 80.5233 124.658 80.721C124.471 80.8715 124.379 81.0727 124.379 81.3212C124.379 81.4698 124.417 81.6022 124.495 81.7183C124.571 81.8343 124.711 81.9485 124.91 82.0628C125.053 82.1425 125.392 82.3003 125.927 82.536C126.36 82.7282 126.659 82.8787 126.824 82.9893C127.044 83.1344 127.212 83.3103 127.33 83.5188C127.448 83.7255 127.508 83.9612 127.508 84.2241C127.508 84.5505 127.408 84.8515 127.209 85.1271C127.009 85.4027 126.736 85.6167 126.384 85.7672C126.032 85.9177 125.631 85.9938 125.178 85.9938C124.495 85.9938 123.938 85.8451 123.505 85.5478C123.073 85.2504 122.856 84.7137 122.852 83.9413H122.85Z" fill="#1E2764"/>
<path d="M131.141 85.1017C130.617 85.6947 130.08 85.9902 129.533 85.9902C129.196 85.9902 128.924 85.8941 128.715 85.7001C128.509 85.5061 128.405 85.2704 128.405 84.9911C128.405 84.808 128.452 84.4925 128.545 84.0446L129.072 81.5224H129.818L129.234 84.3166C129.185 84.5505 129.159 84.73 129.159 84.8606C129.159 85.0256 129.21 85.1543 129.31 85.245C129.41 85.3374 129.558 85.3828 129.752 85.3828C129.961 85.3828 130.164 85.332 130.363 85.2305C130.563 85.1289 130.733 84.9911 130.878 84.8189C131.021 84.6466 131.139 84.4417 131.23 84.206C131.29 84.0555 131.36 83.7908 131.44 83.4118L131.835 81.5224H132.58L131.667 85.8923H130.98L131.145 85.1017H131.141Z" fill="#1E2764"/>
<path d="M135.791 85.2577C135.365 85.7454 134.921 85.9902 134.459 85.9902C134.045 85.9902 133.699 85.8379 133.424 85.5315C133.148 85.225 133.01 84.7826 133.01 84.2006C133.01 83.6675 133.119 83.1815 133.336 82.7409C133.554 82.3003 133.828 81.9703 134.156 81.7509C134.484 81.5315 134.812 81.4209 135.142 81.4209C135.686 81.4209 136.096 81.682 136.373 82.206L136.866 79.8561H137.608L136.35 85.8887H135.662L135.795 85.254L135.791 85.2577ZM133.75 84.0609C133.75 84.3656 133.781 84.6049 133.84 84.7808C133.9 84.9567 134.004 85.1017 134.149 85.2196C134.294 85.3356 134.468 85.3937 134.671 85.3937C135.008 85.3937 135.314 85.2178 135.588 84.8678C135.956 84.4018 136.139 83.8252 136.139 83.1398C136.139 82.7935 136.049 82.5233 135.867 82.3293C135.686 82.1353 135.459 82.0374 135.184 82.0374C135.006 82.0374 134.843 82.0773 134.696 82.1571C134.549 82.2368 134.404 82.371 134.259 82.5632C134.116 82.7536 133.995 82.9966 133.895 83.2903C133.797 83.5841 133.746 83.8415 133.746 84.0646L133.75 84.0609Z" fill="#1E2764"/>
<path d="M137.664 84.2332C137.664 83.3792 137.914 82.6738 138.416 82.1135C138.83 81.653 139.374 81.4227 140.046 81.4227C140.574 81.4227 140.998 81.5877 141.319 81.9159C141.642 82.2459 141.803 82.6901 141.803 83.2486C141.803 83.7509 141.701 84.2169 141.498 84.6502C141.295 85.0818 141.007 85.4136 140.632 85.6439C140.256 85.8742 139.863 85.9902 139.448 85.9902C139.107 85.9902 138.799 85.9177 138.52 85.7726C138.24 85.6276 138.028 85.4209 137.882 85.1561C137.735 84.8896 137.662 84.5831 137.662 84.235L137.664 84.2332ZM138.407 84.1589C138.407 84.5705 138.505 84.8823 138.703 85.0945C138.9 85.3066 139.151 85.4136 139.455 85.4136C139.615 85.4136 139.772 85.381 139.928 85.3175C140.084 85.2522 140.229 85.1543 140.365 85.0238C140.499 84.8914 140.614 84.7427 140.71 84.5741C140.804 84.4054 140.88 84.2241 140.938 84.0283C141.023 83.7563 141.065 83.4952 141.065 83.2468C141.065 82.8515 140.965 82.5451 140.766 82.3275C140.567 82.1099 140.316 82.0011 140.015 82.0011C139.781 82.0011 139.569 82.0573 139.377 82.1679C139.185 82.2785 139.011 82.4417 138.857 82.6557C138.703 82.8697 138.589 83.1181 138.516 83.4027C138.444 83.6874 138.407 83.9395 138.407 84.1625V84.1589Z" fill="#1E2764"/>
<path d="M145.427 84.4054L146.15 84.4798C146.045 84.8388 145.806 85.1815 145.432 85.5043C145.057 85.8288 144.611 85.9902 144.093 85.9902C143.768 85.9902 143.473 85.9159 143.203 85.7654C142.932 85.6167 142.726 85.3991 142.586 85.1126C142.445 84.8279 142.374 84.5015 142.374 84.1371C142.374 83.6602 142.485 83.196 142.706 82.7482C142.927 82.3003 143.213 81.9667 143.563 81.7491C143.915 81.5315 144.294 81.4227 144.704 81.4227C145.224 81.4227 145.641 81.5841 145.953 81.9086C146.265 82.2332 146.42 82.6738 146.42 83.2341C146.42 83.4481 146.401 83.6675 146.362 83.8923H143.144C143.134 83.9775 143.128 84.0537 143.128 84.1226C143.128 84.5306 143.222 84.8443 143.409 85.0582C143.598 85.274 143.826 85.381 144.098 85.381C144.354 85.381 144.604 85.2976 144.85 85.1307C145.097 84.9639 145.289 84.7228 145.427 84.4073V84.4054ZM143.262 83.323H145.715C145.717 83.2468 145.719 83.1906 145.719 83.158C145.719 82.7844 145.626 82.4998 145.44 82.3003C145.253 82.1008 145.014 82.0011 144.72 82.0011C144.401 82.0011 144.111 82.1117 143.85 82.3311C143.589 82.5505 143.393 82.8805 143.264 83.323H143.262Z" fill="#1E2764"/>
<path d="M146.975 84.3982L147.72 84.3528C147.72 84.5668 147.753 84.7499 147.818 84.9004C147.884 85.0509 148.005 85.1742 148.183 85.2703C148.36 85.3664 148.565 85.4136 148.803 85.4136C149.133 85.4136 149.379 85.3483 149.544 85.2159C149.709 85.0836 149.791 84.9295 149.791 84.7518C149.791 84.623 149.742 84.5015 149.642 84.3855C149.541 84.2694 149.292 84.128 148.899 83.9594C148.505 83.7908 148.253 83.6711 148.145 83.604C147.961 83.4916 147.822 83.3592 147.729 83.2069C147.637 83.0546 147.59 82.8805 147.59 82.6829C147.59 82.3366 147.728 82.041 148.001 81.7944C148.275 81.5478 148.659 81.4245 149.153 81.4245C149.702 81.4245 150.119 81.5514 150.405 81.8053C150.692 82.0591 150.84 82.3928 150.851 82.808L150.123 82.8569C150.112 82.594 150.017 82.3855 149.843 82.2314C149.667 82.0773 149.419 82.0011 149.098 82.0011C148.841 82.0011 148.64 82.0609 148.498 82.1788C148.355 82.2967 148.284 82.4236 148.284 82.5614C148.284 82.6992 148.346 82.8189 148.469 82.924C148.551 82.9947 148.765 83.1054 149.107 83.254C149.678 83.5006 150.037 83.6965 150.186 83.8379C150.422 84.0664 150.539 84.342 150.539 84.6684C150.539 84.8859 150.472 85.0981 150.34 85.3066C150.208 85.5151 150.005 85.6819 149.731 85.8071C149.457 85.9322 149.136 85.9938 148.766 85.9938C148.262 85.9938 147.833 85.8687 147.479 85.6185C147.126 85.3683 146.959 84.9621 146.977 84.4L146.975 84.3982Z" fill="#1E2764"/>
<path d="M152.858 85.2867L152.735 85.8959C152.557 85.9431 152.383 85.9666 152.216 85.9666C151.921 85.9666 151.683 85.8941 151.509 85.749C151.377 85.6402 151.312 85.4897 151.312 85.3012C151.312 85.2051 151.348 84.9839 151.419 84.6393L151.95 82.1008H151.361L151.48 81.5242H152.07L152.296 80.4508L153.148 79.9359L152.815 81.5242H153.547L153.424 82.1008H152.695L152.189 84.516C152.126 84.8225 152.095 85.0074 152.095 85.0673C152.095 85.1543 152.12 85.2232 152.171 85.2685C152.222 85.3157 152.305 85.3392 152.42 85.3392C152.584 85.3392 152.731 85.3229 152.86 85.2903L152.858 85.2867Z" fill="#1E2764"/>
<path d="M156.669 84.4054L157.392 84.4798C157.287 84.8388 157.048 85.1815 156.674 85.5043C156.299 85.8288 155.853 85.9902 155.335 85.9902C155.01 85.9902 154.715 85.9159 154.445 85.7654C154.174 85.6167 153.968 85.3991 153.828 85.1126C153.687 84.8279 153.616 84.5015 153.616 84.1371C153.616 83.6602 153.727 83.196 153.948 82.7482C154.169 82.3003 154.455 81.9667 154.805 81.7491C155.157 81.5315 155.536 81.4227 155.946 81.4227C156.466 81.4227 156.883 81.5841 157.195 81.9086C157.507 82.2332 157.663 82.6738 157.663 83.2341C157.663 83.4481 157.643 83.6675 157.605 83.8923H154.387C154.376 83.9775 154.37 84.0537 154.37 84.1226C154.37 84.5306 154.465 84.8443 154.651 85.0582C154.84 85.274 155.068 85.381 155.34 85.381C155.596 85.381 155.846 85.2976 156.093 85.1307C156.339 84.9639 156.531 84.7228 156.669 84.4073V84.4054ZM154.504 83.323H156.957C156.959 83.2468 156.961 83.1906 156.961 83.158C156.961 82.7844 156.868 82.4998 156.682 82.3003C156.495 82.1008 156.256 82.0011 155.962 82.0011C155.643 82.0011 155.353 82.1117 155.092 82.3311C154.831 82.5505 154.635 82.8805 154.506 83.323H154.504Z" fill="#1E2764"/>
<path d="M160.569 85.8923L161.832 79.8597H164.35C164.787 79.8597 165.114 79.9105 165.331 80.0102C165.549 80.1099 165.73 80.2822 165.872 80.5252C166.015 80.7681 166.085 81.0401 166.085 81.3429C166.085 81.5931 166.035 81.847 165.933 82.1045C165.832 82.362 165.703 82.5759 165.549 82.7427C165.393 82.9095 165.237 83.0365 165.077 83.1217C164.918 83.2069 164.748 83.2704 164.568 83.3103C164.182 83.4009 163.79 83.4463 163.395 83.4463H161.885L161.375 85.8941H160.569V85.8923ZM162.03 82.7591H163.359C163.874 82.7591 164.253 82.7028 164.494 82.5922C164.735 82.4816 164.929 82.3112 165.074 82.0845C165.219 81.8561 165.291 81.6149 165.291 81.3611C165.291 81.1634 165.253 81.002 165.175 80.8769C165.099 80.7518 164.99 80.6593 164.851 80.6013C164.711 80.5415 164.443 80.5125 164.044 80.5125H162.498L162.028 82.7591H162.03Z" fill="#1E2764"/>
<path d="M169.053 85.3483C168.796 85.5713 168.547 85.7327 168.308 85.8361C168.069 85.9394 167.815 85.9902 167.543 85.9902C167.141 85.9902 166.814 85.8723 166.568 85.6348C166.321 85.3973 166.198 85.0945 166.198 84.7227C166.198 84.478 166.254 84.2622 166.365 84.0754C166.475 83.8869 166.624 83.7364 166.807 83.6221C166.99 83.5079 167.215 83.4263 167.481 83.3773C167.648 83.3447 167.965 83.3175 168.433 83.2994C168.901 83.2794 169.236 83.2305 169.439 83.1507C169.497 82.9476 169.526 82.779 169.526 82.6448C169.526 82.4725 169.463 82.3366 169.338 82.2368C169.166 82.099 168.912 82.0319 168.58 82.0319C168.268 82.0319 168.011 82.1008 167.813 82.2404C167.614 82.3783 167.469 82.5759 167.38 82.8316L166.628 82.7663C166.782 82.3329 167.025 82.0011 167.358 81.7708C167.692 81.5405 168.112 81.4245 168.62 81.4245C169.16 81.4245 169.588 81.5532 169.904 81.8107C170.145 82.0029 170.266 82.2531 170.266 82.5596C170.266 82.7935 170.232 83.0637 170.163 83.3701L169.92 84.4562C169.844 84.8025 169.804 85.0836 169.804 85.2994C169.804 85.4372 169.835 85.6348 169.894 85.8923H169.142C169.1 85.749 169.071 85.5677 169.055 85.3483H169.053ZM169.329 83.6783C169.224 83.72 169.113 83.7509 168.993 83.7726C168.874 83.7944 168.674 83.818 168.395 83.8433C167.962 83.8814 167.655 83.9304 167.478 83.9902C167.3 84.05 167.166 84.1425 167.075 84.2713C166.985 84.4 166.939 84.5432 166.939 84.6992C166.939 84.9077 167.012 85.08 167.155 85.2141C167.298 85.3483 167.505 85.4154 167.77 85.4154C168.016 85.4154 168.254 85.3501 168.482 85.2196C168.711 85.089 168.89 84.9077 169.021 84.6738C169.153 84.4399 169.254 84.1081 169.329 83.6783Z" fill="#1E2764"/>
<path d="M173.778 85.1017C173.254 85.6947 172.717 85.9902 172.17 85.9902C171.832 85.9902 171.561 85.8941 171.352 85.7001C171.145 85.5061 171.042 85.2704 171.042 84.9911C171.042 84.808 171.089 84.4925 171.182 84.0446L171.709 81.5224H172.454L171.871 84.3166C171.822 84.5505 171.796 84.73 171.796 84.8606C171.796 85.0256 171.847 85.1543 171.947 85.245C172.046 85.3374 172.195 85.3828 172.389 85.3828C172.598 85.3828 172.801 85.332 173 85.2305C173.199 85.1289 173.37 84.9911 173.515 84.8189C173.658 84.6466 173.776 84.4417 173.867 84.206C173.926 84.0555 173.997 83.7908 174.077 83.4118L174.472 81.5224H175.217L174.304 85.8923H173.616L173.781 85.1017H173.778Z" fill="#1E2764"/>
<path d="M175.422 85.8923L176.68 79.8597H177.425L176.167 85.8923H175.422Z" fill="#1E2764"/>
<path d="M177.324 85.8923L178.238 81.5224H178.983L178.069 85.8923H177.324ZM178.41 80.7029L178.588 79.8597H179.329L179.151 80.7029H178.41Z" fill="#1E2764"/>
<path d="M179.295 84.3982L180.04 84.3528C180.04 84.5668 180.072 84.7499 180.138 84.9004C180.203 85.0509 180.324 85.1742 180.502 85.2703C180.68 85.3664 180.885 85.4136 181.122 85.4136C181.452 85.4136 181.699 85.3483 181.864 85.2159C182.028 85.0836 182.11 84.9295 182.11 84.7518C182.11 84.623 182.061 84.5015 181.961 84.3855C181.86 84.2694 181.612 84.128 181.218 83.9594C180.825 83.7908 180.573 83.6711 180.464 83.604C180.281 83.4916 180.141 83.3592 180.049 83.2069C179.956 83.0546 179.909 82.8805 179.909 82.6829C179.909 82.3366 180.047 82.041 180.321 81.7944C180.594 81.5478 180.979 81.4245 181.472 81.4245C182.021 81.4245 182.438 81.5514 182.725 81.8053C183.011 82.0591 183.16 82.3928 183.171 82.808L182.442 82.8569C182.431 82.594 182.337 82.3855 182.163 82.2314C181.987 82.0773 181.738 82.0011 181.418 82.0011C181.16 82.0011 180.959 82.0609 180.817 82.1788C180.674 82.2967 180.604 82.4236 180.604 82.5614C180.604 82.6992 180.665 82.8189 180.788 82.924C180.87 82.9947 181.084 83.1054 181.427 83.254C181.998 83.5006 182.357 83.6965 182.505 83.8379C182.741 84.0664 182.859 84.342 182.859 84.6684C182.859 84.8859 182.792 85.0981 182.659 85.3066C182.527 85.5151 182.324 85.6819 182.05 85.8071C181.776 85.9322 181.456 85.9938 181.086 85.9938C180.582 85.9938 180.152 85.8687 179.799 85.6185C179.445 85.3683 179.278 84.9621 179.296 84.4L179.295 84.3982Z" fill="#1E2764"/>
<path d="M185.179 85.2867L185.056 85.8959C184.878 85.9431 184.704 85.9666 184.538 85.9666C184.242 85.9666 184.005 85.8941 183.831 85.749C183.698 85.6402 183.633 85.4897 183.633 85.3012C183.633 85.2051 183.669 84.9839 183.74 84.6393L184.271 82.1008H183.682L183.802 81.5242H184.391L184.617 80.4508L185.469 79.9359L185.136 81.5242H185.868L185.745 82.1008H185.016L184.51 84.516C184.447 84.8225 184.416 85.0074 184.416 85.0673C184.416 85.1543 184.442 85.2232 184.492 85.2685C184.543 85.3157 184.626 85.3392 184.741 85.3392C184.906 85.3392 185.052 85.3229 185.181 85.2903L185.179 85.2867Z" fill="#1E2764"/>
<path d="M188.726 85.3483C188.468 85.5713 188.22 85.7327 187.98 85.8361C187.741 85.9394 187.487 85.9902 187.215 85.9902C186.813 85.9902 186.487 85.8723 186.24 85.6348C185.993 85.3973 185.87 85.0945 185.87 84.7227C185.87 84.478 185.926 84.2622 186.037 84.0754C186.148 83.8869 186.296 83.7364 186.479 83.6221C186.662 83.5079 186.887 83.4263 187.154 83.3773C187.32 83.3447 187.638 83.3175 188.105 83.2994C188.573 83.2794 188.909 83.2305 189.112 83.1507C189.17 82.9476 189.199 82.779 189.199 82.6448C189.199 82.4725 189.135 82.3366 189.01 82.2368C188.838 82.099 188.584 82.0319 188.252 82.0319C187.941 82.0319 187.683 82.1008 187.485 82.2404C187.286 82.3783 187.141 82.5759 187.052 82.8316L186.3 82.7663C186.454 82.3329 186.697 82.0011 187.03 81.7708C187.364 81.5405 187.785 81.4245 188.292 81.4245C188.832 81.4245 189.26 81.5532 189.576 81.8107C189.817 82.0029 189.938 82.2531 189.938 82.5596C189.938 82.7935 189.904 83.0637 189.835 83.3701L189.592 84.4562C189.516 84.8025 189.476 85.0836 189.476 85.2994C189.476 85.4372 189.507 85.6348 189.567 85.8923H188.814C188.773 85.749 188.744 85.5677 188.727 85.3483H188.726ZM189.001 83.6783C188.896 83.72 188.785 83.7509 188.666 83.7726C188.546 83.7944 188.347 83.818 188.067 83.8433C187.634 83.8814 187.328 83.9304 187.15 83.9902C186.972 84.05 186.838 84.1425 186.748 84.2713C186.657 84.4 186.612 84.5432 186.612 84.6992C186.612 84.9077 186.684 85.08 186.827 85.2141C186.971 85.3483 187.177 85.4154 187.442 85.4154C187.689 85.4154 187.926 85.3501 188.154 85.2196C188.383 85.089 188.562 84.9077 188.693 84.6738C188.825 84.4399 188.927 84.1081 189.001 83.6783Z" fill="#1E2764"/>
<path d="M70.6522 37.9018H45.804L45.7587 38.0287L32.5097 75.0601H43.953L53.7955 47.5517H62.0244C62.5302 47.5517 62.8819 48.0522 62.7115 48.5291L53.2189 75.0601H65.7591L76.2234 45.8147C77.603 41.9598 74.7458 37.9036 70.6522 37.9036V37.9018Z" fill="#1E2764"/>
<path d="M94.1262 47.5517H103.142L106.594 37.9018H79.929L76.4772 47.5517H83.6492L75.5054 70.3167C74.6787 72.6286 76.392 75.0601 78.8449 75.0601H93.8433L97.2952 65.4101H89.262C88.5187 65.4101 88.0002 64.674 88.2504 63.9723L94.1262 47.5517Z" fill="#1E2764"/>
<path d="M148.44 51.3033L147.517 49.9162C146.821 48.8699 147.559 47.4665 148.815 47.4484C148.815 47.4484 152.893 47.2761 154.93 47.1909L158.254 37.9018H142.679C139.72 37.9018 137.08 39.7603 136.085 42.5472C135.314 44.4838 135.534 46.6741 136.67 48.4221L140.122 53.7239C141 55.0712 141.921 56.3894 142.753 57.7656C143.155 58.3458 144.209 60.4691 142.731 63.0548C141.848 64.5996 140.211 65.7148 138.186 65.7583L137.63 65.771H127.774L126.112 70.4164L124.449 75.0619H140.2C145.869 75.0619 150.926 71.5007 152.835 66.1626C153.883 63.383 153.85 60.2243 152.396 57.635C151.482 56.0068 148.435 51.3069 148.435 51.3069L148.44 51.3033Z" fill="#1E2764"/>
<path d="M113.523 60.9641H126.179L128.819 52.1174H116.304C119.29 48.6632 122.002 47.3069 130.137 47.7022L133.061 37.9018H127.37C115.834 37.9018 105.542 45.151 101.657 56.014L101.329 56.9333C98.169 65.7655 104.716 75.0601 114.094 75.0601H121.978L124.955 65.0801C116.547 65.14 115.057 64.7501 113.528 60.9641H113.523Z" fill="#1E2764"/>
<path d="M177.938 37.9018H163.848L163.42 39.0985L162.993 40.2952L162.565 41.492L162.137 42.6887L161.709 43.8854L161.281 45.0821L160.853 46.2789L160.425 47.4756L160.404 47.5336H175.239C176.535 47.5336 177.667 48.5109 177.75 49.8038C177.842 51.2199 176.72 52.3985 175.322 52.3985H158.661L157.664 55.1836L156.649 58.0213L155.634 60.859L154.619 63.6967L153.603 66.5343L152.588 69.372L151.573 72.2097L150.558 75.0474H162.179L164.537 68.4527L166.896 61.858H173.051C180.373 61.858 186.945 58.1736 189.373 50.3604C191.307 43.0114 189.126 37.9489 177.94 37.8873L177.938 37.9018Z" fill="#1E2764"/>
<path d="M160.422 47.481L160.4 47.539H175.235C176.532 47.539 177.663 48.5164 177.746 49.8092C177.839 51.2253 176.717 52.4039 175.319 52.4039H158.658L160.42 47.4792L160.422 47.481Z" fill="#F8C213"/>
<path d="M47.1274 29.0986H50.5412V29.7822H47.9451V31.8782H50.3436V32.5528H47.9451V35.4068H47.1274V29.0986Z" fill="#1E2764"/>
<path d="M63.1285 33.4231L62.4704 35.4068H61.6237L63.7775 29.0986H64.7655L66.9284 35.4068H66.0527L65.3747 33.4231H63.1266H63.1285ZM65.2061 32.7867L64.5861 30.9716C64.4447 30.56 64.3504 30.1847 64.2561 29.8202H64.238C64.1437 30.1938 64.0404 30.5782 63.9189 30.9626L63.2989 32.7885H65.2079L65.2061 32.7867Z" fill="#1E2764"/>
<path d="M83.2757 35.2019C82.9747 35.3524 82.3729 35.5011 81.6005 35.5011C79.813 35.5011 78.4678 34.3787 78.4678 32.3098C78.4678 30.2409 79.813 28.997 81.7782 28.997C82.5686 28.997 83.0672 29.1657 83.2829 29.2781L83.0853 29.9417C82.7753 29.7912 82.333 29.6788 81.8054 29.6788C80.3188 29.6788 79.3307 30.6235 79.3307 32.2808C79.3307 33.8256 80.2245 34.8175 81.7673 34.8175C82.2659 34.8175 82.7735 34.7141 83.1035 34.5546L83.2721 35.2001L83.2757 35.2019Z" fill="#1E2764"/>
<path d="M96.2473 29.0986V32.832C96.2473 34.2445 96.8782 34.8447 97.7248 34.8447C98.6658 34.8447 99.2677 34.2264 99.2677 32.832V29.0986H100.096V32.7776C100.096 34.7141 99.07 35.5101 97.6976 35.5101C96.3996 35.5101 95.4206 34.7703 95.4206 32.8139V29.0986H96.2491H96.2473Z" fill="#1E2764"/>
<path d="M112.644 29.0986H113.461V34.7232H116.17V35.4068H112.642V29.0986H112.644Z" fill="#1E2764"/>
<path d="M128.209 29.1838C128.708 29.1095 129.301 29.0533 129.95 29.0533C131.126 29.0533 131.962 29.3252 132.517 29.8402C133.081 30.3551 133.411 31.0841 133.411 32.1049C133.411 33.1257 133.092 33.9761 132.499 34.5564C131.906 35.1457 130.929 35.4648 129.696 35.4648C129.112 35.4648 128.625 35.4376 128.209 35.3905V29.1856V29.1838ZM129.029 34.7613C129.236 34.7994 129.537 34.8084 129.857 34.8084C131.607 34.8084 132.557 33.8347 132.557 32.1321C132.566 30.6434 131.719 29.6988 129.99 29.6988C129.567 29.6988 129.246 29.7368 129.031 29.7822V34.7613H129.029Z" fill="#1E2764"/>
<path d="M146.497 33.4231L145.839 35.4068H144.992L147.146 29.0986H148.134L150.297 35.4068H149.421L148.743 33.4231H146.495H146.497ZM148.574 32.7867L147.954 30.9716C147.813 30.56 147.719 30.1847 147.624 29.8202H147.606C147.512 30.1938 147.409 30.5782 147.287 30.9626L146.667 32.7885H148.576L148.574 32.7867Z" fill="#1E2764"/>
<path d="M162.356 29.1838C162.855 29.1095 163.448 29.0533 164.097 29.0533C165.273 29.0533 166.109 29.3252 166.664 29.8402C167.228 30.3551 167.558 31.0841 167.558 32.1049C167.558 33.1257 167.238 33.9761 166.646 34.5564C166.053 35.1457 165.076 35.4648 163.843 35.4648C163.259 35.4648 162.771 35.4376 162.356 35.3905V29.1856V29.1838ZM163.174 34.7613C163.381 34.7994 163.681 34.8084 164.002 34.8084C165.752 34.8084 166.702 33.8347 166.702 32.1321C166.711 30.6434 165.864 29.6988 164.135 29.6988C163.712 29.6988 163.391 29.7368 163.176 29.7822V34.7613H163.174Z" fill="#1E2764"/>
<path d="M183.031 32.4494H180.567V34.7232H183.314V35.4068H179.75V29.0986H183.174V29.7822H180.569V31.7749H183.033V32.4494H183.031Z" fill="#1E2764"/>
</g>
<defs>
<clipPath id="clip0_2_107">
<rect width="190" height="105" fill="white"/>
</clipPath>
</defs>
</svg>
