<svg width="34" height="34" viewBox="0 0 34 34" fill="none" xmlns="http://www.w3.org/2000/svg">
<g clip-path="url(#clip0_418_4)">
<path d="M18.4639 6H3.9279C3.69768 6 3.5 6.21655 3.5 6.47339V24.3136C3.5 24.5679 3.69768 24.787 3.9279 24.787H14.6653V27.5039C14.6653 27.8313 15.0407 28.1335 15.3109 27.9119C15.6137 27.6651 15.9165 27.4158 16.2193 27.1665C16.442 26.9852 16.6647 26.8014 16.8874 26.6176C16.9449 26.5723 17.0275 26.5194 17.0976 26.469C17.1401 26.4993 17.1827 26.5295 17.2127 26.5597C17.4079 26.7561 17.6456 26.9172 17.8558 27.091C18.1861 27.3629 18.5139 27.6349 18.8442 27.9068C19.0269 28.0579 19.2095 28.0025 19.3272 27.864C19.4222 27.7885 19.4898 27.6701 19.4898 27.4989V24.782H30.0721C30.1972 24.782 30.2923 24.7316 30.3624 24.6561C30.3674 24.651 30.3724 24.646 30.3774 24.641C30.3774 24.6384 30.3824 24.6359 30.3849 24.6309C30.455 24.5553 30.5 24.4496 30.5 24.3086V6.47339C30.5 6.21907 30.3048 6 30.0721 6H18.4639ZM14.6653 23.8402H4.35579V6.94426H14.6628V23.8402H14.6653ZM18.634 26.5597C18.1886 26.1921 17.7457 25.8269 17.3003 25.4593C17.1902 25.3687 16.9775 25.3687 16.8674 25.4593C16.4195 25.8269 15.969 26.1946 15.5211 26.5622V6.94426H18.6315V26.5597H18.634ZM19.4898 6.94426H29.6417V23.8402H19.4898V6.94426Z" fill="#1E2764"/>
<path d="M6.3051 11.3785H12.3607C12.7285 11.3785 12.7285 10.749 12.3607 10.749H6.3051C5.93726 10.749 5.93726 11.3785 6.3051 11.3785Z" fill="#1E2764"/>
<path d="M6.3051 14.025H12.3607C12.7285 14.025 12.7285 13.3954 12.3607 13.3954H6.3051C5.93726 13.3954 5.93726 14.025 6.3051 14.025Z" fill="#1E2764"/>
<path d="M6.3051 16.6714H12.3607C12.7285 16.6714 12.7285 16.0419 12.3607 16.0419H6.3051C5.93726 16.0419 5.93726 16.6714 6.3051 16.6714Z" fill="#1E2764"/>
<path d="M6.3051 19.3204H12.3607C12.7285 19.3204 12.7285 18.6909 12.3607 18.6909H6.3051C5.93726 18.6909 5.93726 19.3204 6.3051 19.3204Z" fill="#1E2764"/>
<path d="M27.7274 10.749H21.6718C21.304 10.749 21.304 11.3785 21.6718 11.3785H27.7274C28.0953 11.3785 28.0953 10.749 27.7274 10.749Z" fill="#1E2764"/>
<path d="M27.7274 13.3954H21.6718C21.304 13.3954 21.304 14.025 21.6718 14.025H27.7274C28.0953 14.025 28.0953 13.3954 27.7274 13.3954Z" fill="#1E2764"/>
<path d="M27.7274 16.0419H21.6718C21.304 16.0419 21.304 16.6714 21.6718 16.6714H27.7274C28.0953 16.6714 28.0953 16.0419 27.7274 16.0419Z" fill="#1E2764"/>
<path d="M27.7274 18.6909H21.6718C21.304 18.6909 21.304 19.3204 21.6718 19.3204H27.7274C28.0953 19.3204 28.0953 18.6909 27.7274 18.6909Z" fill="#1E2764"/>
</g>
<defs>
<clipPath id="clip0_418_4">
<rect width="27" height="22" fill="white" transform="translate(3.5 6)"/>
</clipPath>
</defs>
</svg>
