<svg width="53" height="72" viewBox="0 0 53 72" fill="none" xmlns="http://www.w3.org/2000/svg">
<g clip-path="url(#clip0_81_370)">
<path d="M0 7.93013V64.0765C0 68.4454 3.70828 72.0066 8.26927 72.0066H44.7373C49.2983 72.0066 53.0066 68.73 53.0066 64.7053V13.9075C53.0066 11.6304 51.83 9.52542 49.8205 8.14857V7.93013C49.8205 3.55466 46.1122 0 41.5513 0H8.26927C3.70828 0 0 3.55466 0 7.93013ZM2.64405 7.93013C2.64405 5.01756 5.16912 2.64779 8.26927 2.64779H41.5513C44.6514 2.64779 47.1765 5.01756 47.1765 7.93013V8.88995C47.1765 9.37317 47.4343 9.81668 47.8573 10.0484C49.4239 10.9221 50.3626 12.3652 50.3626 13.9075V64.7053C50.3626 67.2737 47.8375 69.3588 44.7373 69.3588H8.26927C5.16912 69.3588 2.64405 66.9891 2.64405 64.0765V7.93013Z" fill="#1E2764"/>
<path d="M9.07569 11.8886C9.31366 12.0872 9.61111 12.1931 9.91518 12.1931H16.4063V34.3418C16.4063 34.8714 16.7236 35.348 17.2061 35.5598C17.3714 35.6326 17.5499 35.6657 17.7283 35.6657C18.0655 35.6657 18.3894 35.5399 18.6405 35.3016L24.1137 30.0656L29.8579 35.3215C30.2413 35.6723 30.8032 35.765 31.2857 35.5532C31.7617 35.3414 32.0723 34.8648 32.0723 34.3418V12.1864H44.929C45.4578 12.1864 45.9338 11.8687 46.1453 11.3855C46.251 11.1406 47.1368 8.94952 46.1056 6.99016C45.6628 6.14949 44.6977 5.06389 42.589 4.64025C42.5031 4.62039 42.4172 4.61377 42.3312 4.61377H9.91518C9.83586 4.61377 9.76314 4.62039 9.68382 4.63363C9.41281 4.67996 7.00011 5.16319 6.49113 7.10269C5.91605 9.28712 8.28909 11.2465 9.06908 11.8886H9.07569ZM10.0474 7.26156H42.1858C42.9856 7.44028 43.5145 7.76464 43.759 8.21476C43.9706 8.61193 43.9772 9.11501 43.9177 9.53866H30.7503C30.0232 9.53866 29.4283 10.1278 29.4283 10.8626V31.3366L24.9863 27.2722C24.7351 27.0405 24.4112 26.928 24.0939 26.928C23.7766 26.928 23.4329 27.0538 23.1817 27.2921L19.0504 31.2439V10.8626C19.0504 10.1278 18.4555 9.53866 17.7283 9.53866H10.3977C9.02281 8.32067 9.04925 7.77788 9.04925 7.77126C9.10213 7.62563 9.58467 7.36747 10.0474 7.25494V7.26156Z" fill="#1E2764"/>
<path d="M21.4234 21.9965L21.1127 23.8102C21.0731 24.0618 21.1722 24.3067 21.3771 24.4589C21.4895 24.545 21.6283 24.5847 21.7671 24.5847C21.8729 24.5847 21.9787 24.5582 22.0778 24.5053L23.7039 23.6514L25.33 24.5053C25.5547 24.6244 25.8258 24.6046 26.0241 24.4523C26.229 24.3067 26.3281 24.0551 26.2885 23.8036L25.9778 21.9899L27.2932 20.7057C27.4717 20.5336 27.5378 20.2688 27.4585 20.0239C27.3791 19.7856 27.1742 19.6069 26.923 19.5738L25.1053 19.309L24.2922 17.6607C24.1798 17.4357 23.9485 17.29 23.6973 17.29C23.4461 17.29 23.2148 17.4357 23.1024 17.6607L22.2893 19.309L20.4716 19.5738C20.2204 19.6069 20.0155 19.7856 19.9361 20.0239C19.8568 20.2622 19.9229 20.527 20.1014 20.7057L21.4168 21.9899L21.4234 21.9965ZM22.8248 20.5799C23.0429 20.5468 23.228 20.4144 23.3205 20.2158L23.6973 19.4612L24.0675 20.2158C24.1666 20.4078 24.3517 20.5468 24.5632 20.5799L25.3961 20.6991L24.7946 21.2882C24.6359 21.4404 24.5698 21.6589 24.6029 21.8707L24.7483 22.7048L24.0014 22.3142C23.9022 22.2613 23.7965 22.2348 23.6907 22.2348C23.5849 22.2348 23.4792 22.2613 23.38 22.3142L22.6331 22.7048L22.7785 21.8707C22.8182 21.6589 22.7454 21.4338 22.5868 21.2816L21.9853 20.6924L22.8182 20.5733L22.8248 20.5799Z" fill="#1E2764"/>
</g>
<defs>
<clipPath id="clip0_81_370">
<rect width="53" height="72" fill="white"/>
</clipPath>
</defs>
</svg>
