<svg width="34" height="34" viewBox="0 0 34 34" fill="none" xmlns="http://www.w3.org/2000/svg">
<g clip-path="url(#clip0_418_3)">
<path d="M26.3577 8.01826H25.5952C25.5295 8.01826 25.466 8.03351 25.409 8.05746V5.52454C25.409 4.68387 24.721 4 23.8753 4C23.0296 4 22.3416 4.68387 22.3416 5.52454V8.02697C22.3131 8.02262 22.2846 8.01826 22.2562 8.01826H11.7395C11.7 8.01826 11.6606 8.02479 11.6233 8.03351V5.52454C11.6233 4.68387 10.9354 4 10.0897 4C9.24393 4 8.55596 4.68387 8.55596 5.52454V8.04657C8.50776 8.02915 8.45518 8.01826 8.4004 8.01826H7.63794C6.18094 8.01826 4.99562 9.19652 4.99562 10.6448V27.3734C4.99562 28.8217 6.18094 30 7.63794 30H26.3533C27.8103 30 28.9956 28.8217 28.9956 27.3734V10.6448C28.9956 9.19652 27.8103 8.01826 26.3533 8.01826H26.3577ZM23.2027 5.52454C23.2027 5.1543 23.505 4.85374 23.8775 4.85374C24.25 4.85374 24.5523 5.1543 24.5523 5.52454V10.1112C24.5523 10.4815 24.25 10.782 23.8775 10.782C23.505 10.782 23.2027 10.4815 23.2027 10.1112V5.52454ZM9.41702 5.52454C9.41702 5.1543 9.71937 4.85374 10.0918 4.85374C10.4643 4.85374 10.7667 5.1543 10.7667 5.52454V10.1112C10.7667 10.4815 10.4643 10.782 10.0918 10.782C9.71937 10.782 9.41702 10.4815 9.41702 10.1112V5.52454ZM28.0688 27.3734C28.0688 28.3099 27.302 29.0722 26.3577 29.0722H7.64233C6.7002 29.0722 5.93117 28.3099 5.93117 27.3734V10.6448C5.93117 9.70833 6.69801 8.94388 7.64233 8.94388H7.93811V9.84989C7.93811 11.0194 8.89557 11.9712 10.0721 11.9712C11.2487 11.9712 12.2061 11.0194 12.2061 9.84989V8.94388H21.7939V9.84989C21.7939 11.0194 22.7513 11.9712 23.9279 11.9712C25.1044 11.9712 26.0619 11.0194 26.0619 9.84989V8.94388H26.3577C27.2998 8.94388 28.0688 9.70615 28.0688 10.6448V27.3734Z" fill="#1E2764"/>
<path d="M26.7126 14.6871H7.36626C7.10992 14.6871 6.89958 14.894 6.89958 15.151V26.5154C6.89958 27.3931 7.61822 28.1074 8.50338 28.1074H25.5755C26.4585 28.1074 27.1771 27.3931 27.1771 26.5154V15.151C27.1771 14.8962 26.969 14.6871 26.7126 14.6871ZM26.2459 26.5154C26.2459 26.8834 25.9458 27.1818 25.5755 27.1818H8.50338C8.1331 27.1818 7.83294 26.8834 7.83294 26.5154V15.6127H26.2481V26.5154H26.2459Z" fill="#1E2764"/>
</g>
<defs>
<clipPath id="clip0_418_3">
<rect width="24" height="26" fill="white" transform="translate(5 4)"/>
</clipPath>
</defs>
</svg>
