<svg width="63" height="71" viewBox="0 0 63 71" fill="none" xmlns="http://www.w3.org/2000/svg">
<g clip-path="url(#clip0_81_380)">
<path d="M22.6244 15.804C24.1726 15.804 25.4334 14.5361 25.4334 12.9793V2.82467C25.4334 1.26786 24.1726 0 22.6244 0C21.0763 0 19.8154 1.26786 19.8154 2.82467V12.9852C19.8154 14.542 21.0763 15.8099 22.6244 15.8099V15.804ZM21.5043 2.82467C21.5043 2.19958 22.0087 1.69834 22.6244 1.69834C23.2402 1.69834 23.7445 2.20548 23.7445 2.82467V12.9852C23.7445 13.6044 23.2402 14.1174 22.6244 14.1174C22.0087 14.1174 21.5043 13.6103 21.5043 12.9852V2.82467Z" fill="#1E2764"/>
<path d="M19.8154 42.6826C19.8154 44.2394 21.0763 45.5073 22.6244 45.5073C24.1726 45.5073 25.4334 44.2394 25.4334 42.6826V32.5221C25.4334 30.9652 24.1726 29.6974 22.6244 29.6974C21.0763 29.6974 19.8154 30.9652 19.8154 32.5221V42.6826ZM21.5043 32.5221C21.5043 31.897 22.0087 31.3957 22.6244 31.3957C23.2402 31.3957 23.7445 31.9029 23.7445 32.5221V42.6826C23.7445 43.3077 23.2402 43.8089 22.6244 43.8089C22.0087 43.8089 21.5043 43.3018 21.5043 42.6826V32.5221Z" fill="#1E2764"/>
<path d="M36.64 5.83801C35.8894 5.83801 35.1857 6.13286 34.6579 6.66359L27.5152 13.852C26.9874 14.3828 26.6942 15.0904 26.6942 15.8452C26.6942 16.6001 26.9874 17.3077 27.5152 17.8384C28.043 18.3692 28.7526 18.664 29.4973 18.664C30.2421 18.664 30.9517 18.3692 31.4795 17.8384L38.6222 10.6559C39.15 10.1251 39.4432 9.4116 39.4432 8.66268C39.4432 7.91376 39.15 7.20022 38.6222 6.66949C38.0944 6.13876 37.3848 5.84391 36.64 5.84391V5.83801ZM28.6998 16.6413C28.4887 16.429 28.3714 16.146 28.3714 15.8452C28.3714 15.5445 28.4887 15.2614 28.6998 15.0491L35.8425 7.86658C36.0536 7.65429 36.3351 7.53635 36.6342 7.53635C36.9333 7.53635 37.2147 7.65429 37.4317 7.86658C37.6428 8.07888 37.7601 8.36193 37.7601 8.66268C37.7601 8.96343 37.6428 9.24649 37.4317 9.45878L30.2832 16.6413C29.8609 17.0659 29.122 17.0659 28.6939 16.6413H28.6998Z" fill="#1E2764"/>
<path d="M18.5663 29.6619C18.5663 28.9071 18.2731 28.1994 17.7453 27.6687C16.6487 26.566 14.8718 26.5719 13.7752 27.6687L6.63249 34.8513C6.10471 35.382 5.81149 36.0955 5.81149 36.8504C5.81149 37.6052 6.10471 38.3128 6.63249 38.8436C7.16028 39.3743 7.86986 39.6691 8.61462 39.6691C9.35938 39.6691 10.069 39.3743 10.5967 38.8436L17.7453 31.661C18.2731 31.1303 18.5663 30.4167 18.5663 29.6678V29.6619ZM16.549 30.458L9.4063 37.6406C8.98407 38.0651 8.24517 38.0651 7.81708 37.6406C7.60596 37.4283 7.48868 37.1452 7.48868 36.8445C7.48868 36.5437 7.60596 36.2607 7.81708 36.0484L14.9598 28.8658C15.1768 28.6476 15.4641 28.5356 15.7515 28.5356C16.0388 28.5356 16.3262 28.6476 16.5431 28.8658C16.7542 29.0781 16.8715 29.3612 16.8715 29.6619C16.8715 29.9627 16.7542 30.2457 16.5431 30.458H16.549Z" fill="#1E2764"/>
<path d="M29.5325 22.7507C29.5325 24.3075 30.7934 25.5754 32.3415 25.5754H42.4457C43.9939 25.5754 45.2547 24.3075 45.2547 22.7507C45.2547 21.1939 43.9939 19.926 42.4457 19.926H32.3415C30.7934 19.926 29.5325 21.1939 29.5325 22.7507ZM43.5658 22.7507C43.5658 23.3758 43.0614 23.877 42.4398 23.877H32.3357C31.714 23.877 31.2156 23.3699 31.2156 22.7507C31.2156 22.1315 31.7199 21.6244 32.3357 21.6244H42.4398C43.0614 21.6244 43.5658 22.1315 43.5658 22.7507Z" fill="#1E2764"/>
<path d="M2.80899 25.5754H12.9132C14.4613 25.5754 15.7221 24.3075 15.7221 22.7507C15.7221 21.1939 14.4613 19.926 12.9132 19.926H2.80899C1.26082 19.926 0 21.1939 0 22.7507C0 24.3075 1.26082 25.5754 2.80899 25.5754ZM2.80899 21.6244H12.9132C13.5348 21.6244 14.0332 22.1315 14.0332 22.7507C14.0332 23.3699 13.5289 23.877 12.9132 23.877H2.80899C2.18738 23.877 1.68891 23.3699 1.68891 22.7507C1.68891 22.1315 2.19324 21.6244 2.80899 21.6244Z" fill="#1E2764"/>
<path d="M13.7693 17.8384C14.2971 18.3692 15.0067 18.664 15.7515 18.664C16.4962 18.664 17.2058 18.3692 17.7336 17.8384C18.2614 17.3077 18.5546 16.5942 18.5546 15.8452C18.5546 15.0963 18.2614 14.3828 17.7336 13.8521L10.5909 6.6636C9.49427 5.56086 7.71739 5.56086 6.62077 6.6636C6.09299 7.19433 5.79977 7.90787 5.79977 8.65679C5.79977 9.40571 6.09299 10.1193 6.62077 10.65L13.7635 17.8325L13.7693 17.8384ZM7.81709 7.8607C8.03407 7.64251 8.32142 7.53046 8.60877 7.53046C8.89612 7.53046 9.18347 7.64251 9.40044 7.8607L16.5431 15.0433C16.7543 15.2555 16.8715 15.5386 16.8715 15.8394C16.8715 16.1401 16.7543 16.4232 16.5431 16.6354C16.1209 17.06 15.382 17.06 14.9539 16.6354L7.80536 9.45289C7.59424 9.2406 7.47696 8.95754 7.47696 8.65679C7.47696 8.35605 7.59424 8.07299 7.80536 7.8607H7.81709Z" fill="#1E2764"/>
<path d="M62.8241 42.7592C62.7772 42.3582 62.525 42.0162 62.1555 41.8569L29.2745 27.5567C28.9051 27.3975 28.477 27.4447 28.1544 27.6923C27.8319 27.9341 27.6618 28.3351 27.7146 28.7361L32.2184 64.472C32.2712 64.873 32.5233 65.215 32.8928 65.3683C33.2622 65.5275 33.6844 65.4745 34.007 65.2327L42.2404 59.0172L50.8609 70.5577C51.0838 70.8526 51.418 71.0059 51.7582 71.0059C51.9927 71.0059 52.2273 70.9351 52.4326 70.7818L62.5485 63.1393C62.7889 62.9623 62.9414 62.6911 62.9883 62.3962C63.0293 62.1014 62.9531 61.8006 62.7713 61.5589L54.1508 50.0184L62.3842 43.7971C62.7009 43.5553 62.871 43.1602 62.8241 42.7592ZM51.9048 48.8862C51.6643 49.0631 51.5119 49.3344 51.4708 49.6292C51.4298 49.9241 51.506 50.2248 51.6819 50.4666L60.3024 62.007L51.981 68.2932L43.3605 56.7528C43.1377 56.4579 42.8034 56.3046 42.4633 56.3046C42.2287 56.3046 41.9941 56.3754 41.7889 56.5287L34.2064 62.2606L30.1893 30.4167L59.4873 43.1602L51.9048 48.8921V48.8862Z" fill="#1E2764"/>
</g>
<defs>
<clipPath id="clip0_81_380">
<rect width="63" height="71" fill="white"/>
</clipPath>
</defs>
</svg>
