<svg width="512" height="512" viewBox="0 0 512 512" fill="none" xmlns="http://www.w3.org/2000/svg">
<path d="M301.246 256L502.625 54.6428C515.125 42.1423 515.125 21.8751 502.625 9.37562C490.124 -3.12487 469.857 -3.12487 457.357 9.37562L256 210.753L54.643 9.37562C42.1425 -3.12487 21.8753 -3.12487 9.37585 9.37562C-3.12363 21.8761 -3.12463 42.1433 9.37585 54.6428L210.754 256L9.37585 457.357C-3.12463 469.858 -3.12463 490.125 9.37585 502.624C21.8763 515.124 42.1435 515.125 54.643 502.624L256 301.246L457.356 502.624C469.857 515.125 490.124 515.125 502.624 502.624C515.124 490.124 515.124 469.857 502.624 457.357L301.246 256Z" fill="#1e2764"/>
</svg>
