<svg width="34" height="34" viewBox="0 0 34 34" fill="none" xmlns="http://www.w3.org/2000/svg">
<path fill-rule="evenodd" clip-rule="evenodd" d="M5.6014 5.2711C3.8447 5.2711 2.41112 6.59653 2.41112 8.22072V19.244C2.41112 20.8764 3.8447 22.2019 5.6014 22.2019H28.3986C30.1642 22.2019 31.5978 20.8764 31.5978 19.244V8.22072C31.5978 6.59653 30.1642 5.2711 28.3986 5.2711H5.6014ZM28.3986 23.0674H5.6014C3.31946 23.0674 1.46725 21.3538 1.46725 19.2451V8.22072C1.46725 6.11092 3.32057 4.39844 5.6014 4.39844H28.3986C30.6806 4.39844 32.5328 6.11195 32.5328 8.22072V19.244C32.5328 21.3538 30.6795 23.0674 28.3986 23.0674Z" fill="#1E2764"/>
<path fill-rule="evenodd" clip-rule="evenodd" d="M10.72 28.8306H23.2811C23.056 27.5881 21.7601 26.6386 20.1952 26.6386H13.807C12.241 26.6386 10.944 27.5954 10.72 28.8306ZM23.7819 29.6015H10.2181C9.95896 29.6015 9.7514 29.4301 9.7514 29.216C9.7514 27.3668 11.5667 25.8677 13.8059 25.8677H20.1941C22.4333 25.8677 24.2486 27.3668 24.2486 29.216C24.2399 29.4301 24.0323 29.6015 23.7819 29.6015Z" fill="#1E2764"/>
<path fill-rule="evenodd" clip-rule="evenodd" d="M19.5888 25.8677C19.3013 25.8677 19.071 25.7023 19.071 25.4957V22.5059C19.071 22.2993 19.3013 22.1339 19.5888 22.1339C19.8763 22.1339 20.1066 22.2993 20.1066 22.5059V25.4957C20.1066 25.7023 19.8763 25.8677 19.5888 25.8677Z" fill="#1E2764"/>
<path fill-rule="evenodd" clip-rule="evenodd" d="M14.4112 25.8677C14.1237 25.8677 13.8935 25.7023 13.8935 25.4957V22.5059C13.8935 22.2993 14.1237 22.1339 14.4112 22.1339C14.6987 22.1339 14.929 22.2993 14.929 22.5059V25.4957C14.929 25.7023 14.6987 25.8677 14.4112 25.8677Z" fill="#1E2764"/>
<path fill-rule="evenodd" clip-rule="evenodd" d="M32.0609 18.4001H1.93917C1.67712 18.4001 1.46725 18.1926 1.46725 17.9334C1.46725 17.6742 1.67712 17.4667 1.93917 17.4667H32.0609C32.3229 17.4667 32.5328 17.6742 32.5328 17.9334C32.5328 18.1926 32.3229 18.4001 32.0609 18.4001Z" fill="#1E2764"/>
</svg>
