<svg width="64" height="51" viewBox="0 0 64 51" fill="none" xmlns="http://www.w3.org/2000/svg">
<g clip-path="url(#clip0_92_19)">
<path d="M27.5 40.5L15.5 49.5V40.5H4.5C2.84 40.5 1.5 39.16 1.5 37.5V4.5C1.5 2.84 2.84 1.5 4.5 1.5H59.5C61.16 1.5 62.5 2.84 62.5 4.5V37.5C62.5 39.16 61.16 40.5 59.5 40.5H27.5Z" stroke="white" stroke-width="3" stroke-linecap="round" stroke-linejoin="round"/>
<path d="M19.25 23.5C20.7688 23.5 22 22.2688 22 20.75C22 19.2312 20.7688 18 19.25 18C17.7312 18 16.5 19.2312 16.5 20.75C16.5 22.2688 17.7312 23.5 19.25 23.5Z" fill="white"/>
<path d="M32.25 23.5C33.7688 23.5 35 22.2688 35 20.75C35 19.2312 33.7688 18 32.25 18C30.7312 18 29.5 19.2312 29.5 20.75C29.5 22.2688 30.7312 23.5 32.25 23.5Z" fill="white"/>
<path d="M45.25 23.5C46.7688 23.5 48 22.2688 48 20.75C48 19.2312 46.7688 18 45.25 18C43.7312 18 42.5 19.2312 42.5 20.75C42.5 22.2688 43.7312 23.5 45.25 23.5Z" fill="white"/>
</g>
<defs>
<clipPath id="clip0_92_19">
<rect width="64" height="51" fill="white"/>
</clipPath>
</defs>
</svg>
