<svg width="38" height="25" viewBox="0 0 38 25" fill="none" xmlns="http://www.w3.org/2000/svg">
<g clip-path="url(#clip0_92_17)">
<path d="M35.7875 0H2.15C0.95 0 0 0.935162 0 2.1197V22.8803C0 24.0648 0.95 25 2.15 25H35.85C37.05 25 38 24.0648 38 22.8803V2.1197C37.9375 0.935162 36.9875 0 35.7875 0ZM1.58125 2.61845L11.7625 12.2195L1.58125 22.2569V2.61845ZM21.4937 14.4638C20.1 15.7731 17.825 15.7731 16.4375 14.4638L2.71875 1.5586H35.2188L21.5 14.4638H21.4937ZM12.9 13.2793L15.3 15.586C17.325 17.5187 20.55 17.5187 22.5688 15.586L24.9688 13.2793L35.2125 23.3791H2.71875L12.9 13.2793ZM26.175 12.2195L36.3562 2.61845V22.2569L26.175 12.2195Z" fill="white"/>
</g>
<defs>
<clipPath id="clip0_92_17">
<rect width="38" height="25" fill="white"/>
</clipPath>
</defs>
</svg>
