<svg width="39" height="72" viewBox="0 0 39 72" fill="none" xmlns="http://www.w3.org/2000/svg">
<g clip-path="url(#clip0_81_374)">
<path d="M3.47493 35.2691C3.47493 37.4234 3.60957 39.3108 4.28275 42.0815C5.48167 46.9112 8.39882 53.5202 9.42463 55.7634C8.98866 56.3798 8.74503 57.0979 8.73862 57.8478C8.7322 58.7883 9.08483 59.6653 9.70031 60.3579C9.09765 61.0252 8.74503 61.8767 8.73862 62.7855C8.72579 63.8467 9.181 64.8254 9.93753 65.5371C9.39257 66.1853 9.07841 66.9924 9.072 67.863C9.05277 70.0045 10.9377 71.7712 13.2714 71.8029L28.4598 72H28.5175C29.678 72 30.7935 71.5615 31.5885 70.7925C32.3258 70.0808 32.7361 69.1466 32.7426 68.1616C32.7554 67.1004 32.3002 66.1217 31.5436 65.41C32.0886 64.7618 32.4028 63.9548 32.4092 63.0841C32.422 62.15 32.063 61.2667 31.4475 60.574C32.0501 59.9067 32.4028 59.0552 32.4092 58.1465C32.422 57.206 32.063 56.3353 31.4539 55.649C32.5182 53.2977 35.3648 46.8285 36.5445 42.0751C37.2177 39.3108 37.3523 37.4171 37.3523 35.2691C37.3523 26.0102 29.7485 18.4797 20.4072 18.4797C11.0659 18.4797 3.47493 26.0102 3.47493 35.2691ZM29.7998 68.9751C29.4728 69.2928 28.9984 69.4898 28.4919 69.458L13.3035 69.261C12.3738 69.2483 11.6237 68.6319 11.6301 67.8884C11.6301 67.3165 12.0981 66.8081 12.7777 66.6301C13.3612 66.4776 13.7587 65.9375 13.7266 65.3401C13.701 64.7428 13.2522 64.2471 12.6559 64.1454C11.8737 64.0183 11.2903 63.44 11.2967 62.8045C11.2967 62.2644 11.7327 61.7687 12.3738 61.5717C12.906 61.4065 13.2714 60.9172 13.2778 60.3643C13.2778 59.8114 12.9188 59.3158 12.3867 59.1505C11.7327 58.9408 11.2967 58.4261 11.3031 57.8732C11.3031 57.6254 11.3929 57.4284 11.4955 57.2759H29.4728C29.71 57.511 29.8511 57.8097 29.8511 58.121C29.8511 58.6612 29.4151 59.1569 28.7804 59.3539C28.2482 59.5191 27.8828 60.0084 27.8764 60.5613C27.8764 61.1142 28.2354 61.6098 28.7675 61.7814C29.4215 61.9911 29.8575 62.4995 29.8511 63.0587C29.8511 63.6307 29.383 64.1327 28.7034 64.317C28.12 64.4695 27.7225 65.0097 27.7546 65.607C27.7802 66.2044 28.229 66.7 28.8252 66.8017C29.6074 66.9288 30.1909 67.5071 30.1844 68.1426C30.1844 68.5302 29.9729 68.8162 29.7998 68.9814V68.9751ZM20.42 21.0153C28.3508 21.0153 34.8006 27.4082 34.8006 35.2628C34.8006 37.2328 34.6788 38.9549 34.0633 41.4714C32.9285 46.0469 30.0562 52.5606 29.0689 54.7276H11.7712C10.7838 52.5606 7.91156 46.0533 6.77675 41.4778C6.16768 38.9549 6.03945 37.2328 6.03945 35.2628C6.03945 27.4019 12.4892 21.0153 20.42 21.0153Z" fill="#1E2764"/>
<path d="M2.6671 5.98625C2.41706 5.67487 2.06444 5.47787 1.66694 5.43338C1.26944 5.38254 0.878348 5.49693 0.564194 5.73841C0.25004 5.98625 0.0512894 6.33577 0.00641024 6.72976C-0.0384689 7.12376 0.0705233 7.51141 0.314153 7.82279L7.96285 17.444C8.24494 17.7998 8.68091 18.0096 9.13612 18.0096C9.15535 18.0096 9.16817 18.0096 9.18741 18.0096C9.50797 17.9968 9.8093 17.8888 10.0593 17.6918C10.3735 17.4503 10.5722 17.0945 10.6171 16.7005C10.662 16.3065 10.553 15.9188 10.3094 15.6074L2.6671 5.98625ZM9.27075 16.6878C9.23228 16.7132 9.19382 16.7322 9.14253 16.7322C9.07841 16.7386 9.00789 16.7068 8.96942 16.6496L1.32714 7.02844C1.28226 6.97125 1.27585 6.91405 1.28226 6.87592C1.28226 6.84415 1.30149 6.7806 1.36561 6.73612C1.41049 6.69799 1.45537 6.69164 1.49383 6.69164C1.50025 6.69164 1.51307 6.69164 1.51948 6.69164C1.55154 6.69164 1.61565 6.7107 1.66053 6.77425L9.30922 16.3954C9.3541 16.4526 9.36051 16.5098 9.3541 16.5479C9.3541 16.5797 9.33487 16.6433 9.27716 16.6878H9.27075Z" fill="#1E2764"/>
<path d="M30.3704 17.6473C30.6204 17.8125 30.9025 17.8951 31.1974 17.8951C31.2167 17.8951 31.2295 17.8951 31.2487 17.8951C31.7296 17.876 32.1784 17.6282 32.4412 17.2342L38.75 7.83544C38.9744 7.50499 39.0513 7.11099 38.9679 6.72335C38.891 6.33571 38.6602 5.9989 38.3268 5.78284C37.9934 5.56677 37.5959 5.48416 37.2048 5.56677C36.8137 5.64303 36.4739 5.8718 36.256 6.20225L29.9536 15.601C29.7357 15.9315 29.6523 16.3255 29.7357 16.7131C29.8126 17.1008 30.0434 17.4376 30.3704 17.6536V17.6473ZM31.0243 16.2937L37.3331 6.88857C37.3779 6.82503 37.4356 6.80596 37.4677 6.79961C37.4998 6.79961 37.5639 6.7869 37.628 6.83138C37.6921 6.87586 37.7113 6.93306 37.7177 6.96483C37.7241 7.00296 37.7241 7.06015 37.6857 7.1237L31.377 16.5288C31.3257 16.6114 31.2423 16.6241 31.2038 16.6241C31.1654 16.6241 31.1205 16.6114 31.082 16.5924C31.0179 16.5479 30.9987 16.4907 30.9923 16.4589C30.9923 16.4271 30.9795 16.3636 31.0243 16.3V16.2937Z" fill="#1E2764"/>
<path d="M20.1059 15.4485C20.1059 15.4485 20.1507 15.4485 20.17 15.4485C20.1892 15.4485 20.2084 15.4485 20.2213 15.4485C20.997 15.4231 21.6318 14.8003 21.6638 14.0314L22.196 1.54419C22.2152 1.1502 22.0741 0.768907 21.8049 0.476586C21.5356 0.184265 21.1637 0.0126851 20.7662 -2.45565e-05C20.3687 -0.0127342 19.9841 0.120717 19.6891 0.387619C19.3942 0.654521 19.2211 1.0231 19.2019 1.42345L18.6697 13.9107C18.6505 14.3047 18.7915 14.6859 19.0608 14.9783C19.3301 15.2706 19.702 15.4422 20.0995 15.4549L20.1059 15.4485ZM19.9584 13.9615L20.4905 1.47429C20.4905 1.39803 20.5354 1.3472 20.5611 1.32813C20.5867 1.30271 20.638 1.27094 20.7149 1.27729C20.7855 1.27729 20.8368 1.31542 20.8624 1.3472C20.888 1.37261 20.9201 1.42345 20.9201 1.49971L20.388 13.9869C20.388 14.0949 20.2918 14.1839 20.1764 14.1903H20.1636C20.093 14.1903 20.0418 14.1521 20.0161 14.1204C19.9969 14.0949 19.9584 14.0441 19.9584 13.9678V13.9615Z" fill="#1E2764"/>
<path d="M11.3352 32.8925C12.1046 32.9369 12.7777 32.3587 12.829 31.5961C12.8547 31.2275 12.906 30.878 12.9957 30.5285C13.5856 28.228 15.4641 27.3256 16.9387 26.9698C17.6311 26.8046 18.1376 26.7855 18.1953 26.7855C18.9711 26.7664 19.5866 26.1309 19.5673 25.362C19.5481 24.6121 18.9198 23.9957 18.1312 23.9957C15.4961 24.0529 10.4056 25.6734 10.0145 31.4054C9.96318 32.1744 10.553 32.8353 11.3224 32.8925H11.3352Z" fill="#1E2764"/>
</g>
<defs>
<clipPath id="clip0_81_374">
<rect width="39" height="72" fill="white"/>
</clipPath>
</defs>
</svg>
