<svg width="37" height="37" viewBox="0 0 37 37" fill="none" xmlns="http://www.w3.org/2000/svg">
<g clip-path="url(#clip0_91_5)">
<path d="M26.8649 17.7904C24.4375 17.7904 22.4605 19.7574 22.4605 22.1726C22.4605 24.5878 24.4375 26.5548 26.8649 26.5548C29.2924 26.5548 31.2694 24.5878 31.2694 22.1726C31.2694 19.7574 29.2924 17.7904 26.8649 17.7904ZM26.8649 23.6292C26.0516 23.6292 25.4009 22.9694 25.4009 22.1726C25.4009 21.3758 26.0641 20.716 26.8649 20.716C27.6657 20.716 28.3289 21.3758 28.3289 22.1726C28.3289 22.9694 27.6657 23.6292 26.8649 23.6292ZM26.8649 11.9515C21.2843 11.9515 16.7296 16.4707 16.7296 22.0232V22.2847C16.7296 25.0734 18.3062 28.2978 21.4219 31.8459C23.6492 34.3856 25.8389 36.1659 25.939 36.2406L26.8649 36.9875L27.7909 36.2406C27.8784 36.1659 30.0807 34.3856 32.3079 31.8459C35.4236 28.2853 37.0002 25.0734 37.0002 22.2847V22.0232C37.0002 16.4707 32.4581 11.9515 26.8649 11.9515ZM34.0597 22.2847C34.0597 26.0195 29.4926 30.8499 26.8649 33.178C26.0641 32.4684 24.8504 31.3106 23.6366 29.9287C21.034 26.9657 19.6701 24.3139 19.6701 22.2847V22.0232C19.6701 18.0767 22.8984 14.8647 26.8649 14.8647C30.8314 14.8647 34.0597 18.0767 34.0597 22.0232V22.2847ZM20.4709 37H7.48277C5.05531 37 3.07831 35.033 3.07831 32.6178V16.5454L2.42765 17.1057C1.81453 17.6285 0.888589 17.5663 0.350544 16.9563H0.363057C-0.162476 16.3462 -0.0999127 15.425 0.513209 14.8896L17.4053 0.298789C17.8558 -0.0995962 18.5315 -0.0995962 18.9944 0.298789L29.3925 9.2749C28.5792 9.11306 27.7283 9.02591 26.8649 9.02591C26.2643 9.02591 25.6762 9.06326 25.1006 9.13795C24.9129 9.16285 24.7252 9.11306 24.5876 8.98856L18.6316 3.83445C18.3813 3.62281 18.0184 3.62281 17.7682 3.83445L6.01879 14.0057V32.6178C6.01879 33.427 6.68196 34.0744 7.48277 34.0744H19.1446C19.3573 34.0744 19.57 34.174 19.7202 34.3358C20.1706 34.8213 20.6086 35.282 21.0215 35.7052C21.497 36.1908 21.1591 37 20.4709 37Z" fill="white"/>
</g>
<defs>
<clipPath id="clip0_91_5">
<rect width="37" height="37" fill="white"/>
</clipPath>
</defs>
</svg>
