<svg width="34" height="34" viewBox="0 0 34 34" fill="none" xmlns="http://www.w3.org/2000/svg">
<g clip-path="url(#clip0_418_5)">
<path d="M10.2452 25.319C11.4466 26.2855 12.8139 26.9313 14.3142 27.2417V28.5318C14.3142 29.3417 14.9452 30 15.721 30H17.4612C18.237 30 18.8679 29.3409 18.8679 28.5318V27.2439C20.1685 26.9946 21.3213 26.529 22.3004 25.8581C24.0511 24.6474 24.9585 22.9557 24.9979 20.8307C25.0239 19.4854 24.6589 18.3247 23.9105 17.3788C22.8033 15.9974 21.1082 15.0986 18.8679 14.7036V12.5124C19.0171 12.6206 19.1634 12.7397 19.3068 12.8707C19.6248 13.1457 19.9962 13.2862 20.4097 13.2884C20.7516 13.2987 21.1377 13.095 21.1961 13.0634C21.2158 13.0545 21.2348 13.0435 21.2531 13.0317L23.2043 11.7512C23.7079 11.4187 23.819 10.9862 23.824 10.6817C23.8296 10.3345 23.6966 10.0175 23.4399 9.76298C22.242 8.34632 20.7052 7.42101 18.8672 7.0091V5.47329C18.8672 4.66198 18.2363 4.00146 17.4605 4.00146H15.7203C14.9445 4.00146 14.3135 4.66125 14.3135 5.47329V6.94438C13.5237 7.09001 12.7942 7.32171 12.1408 7.63432C9.63185 8.82737 8.38053 10.6581 8.42414 13.0737C8.44454 14.2608 8.7906 15.3281 9.45249 16.2431C10.4787 17.6818 12.1134 18.6255 14.3142 19.0507V22.204C13.6228 21.8391 12.9546 21.2941 12.3216 20.5791C12.0437 20.2121 11.6583 20.0187 11.2039 20.0187C10.9591 20.0187 10.6306 20.1569 10.5005 20.2165C10.49 20.2209 10.4801 20.2261 10.471 20.2312C10.4646 20.2349 10.4534 20.2408 10.4478 20.2445L8.67455 21.3323C8.10903 21.6744 7.99578 22.1459 8.00001 22.4827C8.00563 22.785 8.10833 23.0601 8.30668 23.2999C8.79342 24.0046 9.44545 24.6842 10.2452 25.319ZM9.13385 22.1569L10.886 21.0823C10.9957 21.0337 11.154 20.9778 11.2039 20.9734C11.384 20.9734 11.5057 21.0352 11.6119 21.1801C11.6203 21.1911 11.6287 21.2022 11.6379 21.2125C12.5607 22.2591 13.563 22.9873 14.6181 23.3772C14.7581 23.4286 14.9128 23.4066 15.0338 23.3168C15.1548 23.2271 15.2265 23.0822 15.2265 22.927V18.6483C15.2265 18.413 15.0619 18.2129 14.8397 18.1769C12.6873 17.8297 11.1202 16.9875 10.1812 15.6709C9.62903 14.9074 9.35261 14.0527 9.33572 13.0575C9.29915 11.0288 10.3409 9.53864 12.5199 8.50079C13.2008 8.17494 13.9787 7.94692 14.8326 7.82335C15.0584 7.79025 15.2265 7.58871 15.2265 7.3504V5.47182C15.2265 5.18643 15.4481 4.95473 15.721 4.95473H17.4612C17.7341 4.95473 17.9549 5.18643 17.9549 5.47182V7.40115C17.9549 7.63358 18.1146 7.83144 18.3327 7.87116C20.1368 8.19995 21.6301 9.05391 22.7703 10.4103C22.7815 10.4235 22.7928 10.436 22.8055 10.4478C22.9011 10.539 22.9131 10.6081 22.9117 10.664C22.911 10.7133 22.9089 10.8155 22.7175 10.9421L20.7882 12.2079C20.6841 12.2616 20.497 12.333 20.4133 12.333C20.2128 12.3322 20.0412 12.2675 19.8963 12.1417C19.4932 11.7754 19.0586 11.4768 18.6056 11.2532C18.4642 11.1833 18.2989 11.1943 18.1667 11.2819C18.0344 11.3694 17.9549 11.5217 17.9549 11.685V15.1119C17.9549 15.3502 18.1224 15.5517 18.3481 15.5841C20.5532 15.907 22.19 16.7161 23.2092 17.9886C23.8204 18.7616 24.1074 19.6847 24.0849 20.8108C24.0511 22.6291 23.3027 24.02 21.7982 25.0608C20.8353 25.7206 19.6726 26.1597 18.3439 26.3671C18.1202 26.4017 17.9549 26.6025 17.9549 26.8386V28.5311C17.9549 28.8143 17.7334 29.0453 17.4612 29.0453H15.721C15.4481 29.0453 15.2265 28.8143 15.2265 28.5311V26.8416C15.2265 26.6069 15.0633 26.4069 14.8418 26.3701C13.3415 26.1207 11.9825 25.5124 10.7988 24.5599C10.063 23.9752 9.46937 23.3573 9.03468 22.724C9.02483 22.71 9.01428 22.6968 9.00373 22.6835C8.92425 22.5909 8.91299 22.521 8.91159 22.4658C8.91088 22.4048 8.90877 22.2908 9.13315 22.1554L9.13385 22.1569Z" fill="#1E2764"/>
<path d="M15.2272 11.5915C15.2272 11.4341 15.1527 11.287 15.0282 11.198C14.9037 11.109 14.7461 11.0899 14.6054 11.1473L14.4718 11.2017C14.4613 11.2061 14.4507 11.2105 14.4402 11.2157C13.3816 11.7445 13.1635 12.5205 13.1663 13.0788V13.0803C13.172 13.7283 13.4259 14.5999 14.6069 15.0751C14.6596 15.0964 14.7152 15.1067 14.7707 15.1067C14.8615 15.1067 14.9515 15.078 15.0289 15.0228C15.1527 14.9338 15.2265 14.7867 15.2265 14.6293V11.5908L15.2272 11.5915ZM14.315 13.7724C14.1187 13.5414 14.0807 13.2906 14.0793 13.0736C14.0786 12.9023 14.1103 12.6787 14.315 12.4499V13.7724Z" fill="#1E2764"/>
<path d="M18.166 23.2624C18.2405 23.3124 18.3263 23.3381 18.4128 23.3381C18.4775 23.3381 18.5423 23.3242 18.6028 23.2947C18.735 23.2315 18.8897 23.1543 19.0318 23.0601C19.8393 22.5452 20.2698 21.7758 20.2775 20.8344C20.2824 20.1003 19.987 19.1249 18.55 18.6513C18.4114 18.6057 18.2602 18.6314 18.1427 18.7211C18.0253 18.8109 17.9563 18.9536 17.9563 19.1058V22.86C17.9563 23.0226 18.0351 23.1741 18.166 23.2616V23.2624ZM18.8686 19.8443C19.3005 20.1451 19.3666 20.5144 19.3645 20.827C19.3603 21.3125 19.202 21.6942 18.8686 22.0053V19.8436V19.8443Z" fill="#1E2764"/>
</g>
<defs>
<clipPath id="clip0_418_5">
<rect width="17" height="26" fill="white" transform="translate(8 4)"/>
</clipPath>
</defs>
</svg>
