<svg width="34" height="34" viewBox="0 0 34 34" fill="none" xmlns="http://www.w3.org/2000/svg">
<g clip-path="url(#clip0_19_100)">
<path d="M13.9878 1.88535C13.3617 1.55019 12.6409 1.47716 11.9587 1.68176C10.5515 2.10488 9.75263 3.59333 10.1748 5.00043L12.3248 12.151C12.3295 12.1666 12.3363 12.1841 12.343 12.2017C12.3477 12.2173 12.3505 12.235 12.3573 12.2525L17.5949 29.6686C17.7991 30.3507 18.2572 30.9118 18.8832 31.2469C19.1637 31.3962 19.4594 31.4913 19.7667 31.5363L19.8744 31.8919C19.9611 32.1792 20.1524 32.4139 20.4167 32.556C20.6809 32.6982 20.9835 32.7275 21.2708 32.6406C21.4683 32.5818 21.6414 32.4705 21.7753 32.3235C21.8375 32.2552 21.8915 32.1793 21.9353 32.098C22.0776 31.8336 22.1071 31.5309 22.0204 31.2437L21.9125 30.8841C21.9791 30.8235 22.0496 30.7627 22.1118 30.6943C22.2589 30.5328 22.3852 30.3524 22.4911 30.1572C22.8266 29.5309 22.9001 28.81 22.696 28.1279L17.4582 10.7078C17.4514 10.6903 17.4446 10.6728 17.4399 10.6572C17.4353 10.6415 17.4325 10.6238 17.4278 10.6082L17.3223 10.2584C17.344 10.2554 17.3658 10.2563 17.3854 10.2515C17.5525 10.2218 17.6972 10.1377 17.8066 10.0175C17.8386 9.98234 17.8665 9.94337 17.8924 9.90251C18.0084 9.71272 18.0369 9.47354 17.973 9.24863L16.3701 3.76287C16.2405 3.31909 15.7952 3.03486 15.3552 3.11904C15.2904 3.132 15.2299 3.15269 15.1717 3.17922C14.9359 2.62747 14.5244 2.17319 13.9857 1.88346L13.9878 1.88535ZM21.485 31.4077C21.5274 31.5523 21.5125 31.7017 21.4435 31.8357C21.3723 31.9679 21.2539 32.0647 21.1113 32.1091C20.9666 32.1516 20.8173 32.1368 20.6852 32.0657C20.5531 31.9947 20.4564 31.8763 20.414 31.7317L20.3622 31.5558C20.5477 31.5391 20.7325 31.5066 20.9162 31.4503C21.0999 31.3941 21.2727 31.3166 21.4349 31.2257L21.4889 31.4075L21.485 31.4077ZM21.6233 28.458C21.7407 28.8528 21.7007 29.2709 21.5035 29.6329C21.3084 29.9969 20.9838 30.262 20.5889 30.3797C20.1941 30.4974 19.776 30.4576 19.4141 30.2607C19.0503 30.0658 18.7854 29.7413 18.668 29.3465L14.0235 13.9022C14.5452 14.0817 15.1065 14.0929 15.644 13.9308C16.1131 13.7898 16.5232 13.5306 16.8438 13.1786C16.8928 13.1247 16.9337 13.0673 16.9786 13.0097L21.6233 28.458ZM16.353 10.9364C16.4704 11.3312 16.4304 11.7493 16.2332 12.1113C16.0381 12.4753 15.7135 12.7404 15.3186 12.8581C14.9238 12.9758 14.5057 12.936 14.1438 12.7391C13.78 12.5442 13.5152 12.2197 13.3977 11.8249L11.2477 4.67434C11.086 4.13693 11.2323 3.57706 11.5868 3.18774C11.7678 2.98894 12.0044 2.8331 12.28 2.75074C12.6749 2.63302 13.0929 2.67276 13.4548 2.86974C13.8187 3.06465 14.0835 3.3891 14.2009 3.78391L16.3509 10.9345L16.353 10.9364ZM15.8325 3.92102L17.4353 9.40678C17.4567 9.48306 17.4521 9.55463 17.4151 9.61187C17.3949 9.64651 17.3533 9.68812 17.2787 9.70353C17.2374 9.71142 17.1916 9.70763 17.1495 9.69575L15.3536 3.72361C15.3762 3.69876 15.409 3.67937 15.46 3.66904C15.6152 3.63992 15.7831 3.75488 15.8325 3.92102Z" fill="#1E2764"/>
</g>
<defs>
<clipPath id="clip0_19_100">
<rect width="18.8458" height="28.2687" fill="white" transform="translate(0.0454712 14.2047) rotate(-47.6816)"/>
</clipPath>
</defs>
</svg>
