<svg width="74" height="84" viewBox="0 0 74 84" fill="none" xmlns="http://www.w3.org/2000/svg">
<path d="M40.4453 53.2956C40.1849 53.2956 39.9463 53.1868 39.7511 53.0127L9.76968 22.9176C9.37918 22.5259 9.37918 21.9166 9.76968 21.5249L26.1271 5.11726C26.5176 4.72556 27.125 4.72556 27.5155 5.11726L57.4969 35.1906C57.8874 35.5823 57.8874 36.1916 57.4969 36.5833L41.1395 52.9909C40.9659 53.1868 40.7056 53.2956 40.4453 53.2956ZM11.8502 22.2212L40.4431 50.9236L55.4121 35.9087L26.7996 7.22805L11.8502 22.2212Z" fill="#1E2764"/>
<path d="M8.1426 24.5061C7.25314 24.5061 6.36368 24.1579 5.69116 23.4833C4.32442 22.1124 4.32442 19.9146 5.69116 18.5436L23.155 1.02624C24.5217 -0.344685 26.7128 -0.344685 28.0796 1.02624C29.4463 2.39717 29.4463 4.59501 28.0796 5.96593L10.6157 23.4833C9.92153 24.1579 9.03207 24.5061 8.1426 24.5061ZM25.6064 1.98372C25.2159 1.98372 24.8254 2.13604 24.5434 2.41893L7.07742 19.9363C6.49167 20.5239 6.49167 21.5031 7.07742 22.0907C7.66316 22.6782 8.6394 22.6782 9.22514 22.0907L26.6911 4.57325C27.2769 3.98571 27.2769 3.00647 26.6911 2.41893C26.3874 2.11428 25.9969 1.98372 25.6064 1.98372Z" fill="#1E2764"/>
<path d="M41.658 58.1265C40.7685 58.1265 39.8791 57.7783 39.2065 57.1037C37.8398 55.7328 37.8398 53.5349 39.2065 52.164L56.6704 34.6466C58.0371 33.2757 60.2282 33.2757 61.595 34.6466C62.9617 36.0175 62.9617 38.2154 61.595 39.5863L44.1311 57.1037C43.4369 57.8001 42.5474 58.1265 41.658 58.1265ZM40.5733 55.711C41.159 56.2986 42.1353 56.2986 42.721 55.711L60.1848 38.1936C60.7706 37.6061 60.7706 36.6268 60.1848 36.0393C59.5991 35.4518 58.6228 35.4518 58.0371 36.0393L40.5733 53.5567C39.9875 54.166 39.9875 55.1235 40.5733 55.711Z" fill="#1E2764"/>
<path d="M6.60232 62.8051C4.84509 62.8051 3.17464 62.1087 1.93807 60.8684C-0.643541 58.2788 -0.643541 54.079 1.93807 51.5112L20.7903 32.6011C21.1808 32.2094 21.7883 32.2094 22.1788 32.6011L30.1188 40.5656C30.5093 40.9573 30.5093 41.5666 30.1188 41.9583L11.2666 60.8684C10.03 62.1087 8.38125 62.8051 6.60232 62.8051ZM21.4845 34.6684L3.3265 52.8822C1.52588 54.6883 1.52588 57.6478 3.3265 59.4539C4.19427 60.3243 5.36575 60.8248 6.60232 60.8248C7.83889 60.8248 9.01038 60.3461 9.87815 59.4539L28.0362 41.2402L21.4845 34.6684Z" fill="#1E2764"/>
<path d="M72.8781 84.0001H37.5599C37.0176 84.0001 36.5837 83.5649 36.5837 83.0209C36.5837 77.6242 40.9659 73.2285 46.3461 73.2285H64.1136C69.4938 73.2285 73.876 77.6242 73.876 83.0209C73.8543 83.5649 73.4205 84.0001 72.8781 84.0001ZM38.6013 82.0199H71.8368C71.3595 78.1682 68.062 75.187 64.1136 75.187H46.3461C42.3544 75.187 39.0785 78.19 38.6013 82.0199Z" fill="#1E2764"/>
<path d="M55.5011 70.4213H52.3988C51.8564 70.4213 51.4225 69.9861 51.4225 69.4421C51.4225 68.898 51.8564 68.4628 52.3988 68.4628H55.5011C56.3471 68.4628 57.0413 67.7665 57.0413 66.9178C57.0413 66.0691 56.3471 65.3728 55.5011 65.3728H54.9153C52.9845 65.3728 51.4225 63.806 51.4225 61.8693V61.6299C51.4225 59.6932 52.9845 58.1265 54.9153 58.1265H58.0176C58.5599 58.1265 58.9938 58.5617 58.9938 59.1057C58.9938 59.6497 58.5599 60.0849 58.0176 60.0849H54.9153C54.0692 60.0849 53.375 60.7813 53.375 61.6299V61.8693C53.375 62.718 54.0692 63.4143 54.9153 63.4143H55.5011C57.4318 63.4143 58.9938 64.9811 58.9938 66.9178C58.9938 68.8545 57.4318 70.4213 55.5011 70.4213Z" fill="#1E2764"/>
<path d="M55.7809 72.5537C55.2386 72.5537 54.8047 72.1185 54.8047 71.5745V69.4202C54.8047 68.8761 55.2386 68.4409 55.7809 68.4409C56.3233 68.4409 56.7572 68.8761 56.7572 69.4202V71.5527C56.7572 72.0967 56.3233 72.5537 55.7809 72.5537Z" fill="#1E2764"/>
<path d="M55.7809 60.1088C55.2386 60.1088 54.8047 59.6736 54.8047 59.1296V57.0188C54.8047 56.4748 55.2386 56.0396 55.7809 56.0396C56.3233 56.0396 56.7572 56.4748 56.7572 57.0188V59.1296C56.7572 59.6518 56.3233 60.1088 55.7809 60.1088Z" fill="#1E2764"/>
<path d="M55.2169 75.1869C49.2076 75.1869 44.3264 70.2907 44.3264 64.263C44.3264 58.2353 49.2076 53.3391 55.2169 53.3391C61.2262 53.3391 66.1074 58.2353 66.1074 64.263C66.0857 70.2907 61.2045 75.1869 55.2169 75.1869ZM55.2169 55.3215C50.2923 55.3215 46.3006 59.3255 46.3006 64.2652C46.3006 69.2049 50.2923 73.2089 55.2169 73.2089C60.1415 73.2089 64.1332 69.2049 64.1332 64.2652C64.1332 59.3255 60.1198 55.3215 55.2169 55.3215Z" fill="#1E2764"/>
</svg>
