<svg width="45" height="66" viewBox="0 0 45 66" fill="none" xmlns="http://www.w3.org/2000/svg">
<g clip-path="url(#clip0_81_389)">
<path d="M26.7858 49.7173H19.1774C18.8618 49.7173 18.605 49.4648 18.599 49.1489C18.5847 48.3596 18.5561 47.2823 18.5561 47.271C18.5184 45.1857 18.9846 43.0621 19.9048 41.1261C20.8229 39.1939 22.1716 37.4894 23.8058 36.1972C24.7984 35.4124 25.8798 34.893 26.9251 34.3909C27.5088 34.1105 28.112 33.821 28.6851 33.4908C28.6889 33.4885 28.6926 33.487 28.6956 33.4848C30.6235 32.4278 32.2397 30.8379 33.3685 28.8853C34.5027 26.9252 35.066 24.7345 34.9982 22.5497C34.9146 19.1309 33.3813 15.9156 30.7907 13.7255C28.2114 11.5446 24.9498 10.6105 21.6061 11.0945C20.5563 11.2468 19.5464 11.5431 18.5199 12.0007C16.1033 13.1089 14.0782 15.1142 12.9697 17.501C12.9666 17.507 12.9636 17.5138 12.9606 17.5198C12.9034 17.6322 12.8529 17.755 12.7995 17.8847C12.7663 17.9646 12.7332 18.0445 12.6985 18.1244C12.447 18.8165 12.2482 19.5214 12.0901 20.2783C11.9681 21.0269 11.9131 21.7777 11.9266 22.5105C11.9296 22.6658 11.8702 22.8158 11.761 22.9267C11.6525 23.0375 11.5034 23.1 11.3483 23.1H0.578356C0.42322 23.1 0.274862 23.0375 0.166417 22.9274C0.0579728 22.8166 -0.00227423 22.6673 -1.49641e-05 22.512C0.0534543 19.0751 0.881851 15.6472 2.3948 12.5992C4.1623 9.04017 6.82823 6.00655 10.1064 3.82633C12.4124 2.28012 14.9345 1.18624 17.6004 0.574843C19.63 0.106683 21.7492 -0.0765105 23.9 0.0320483C26.9771 0.187348 30.076 1.02189 32.8617 2.44597C35.6436 3.86779 38.1371 5.8897 40.0725 8.29232C44.3418 13.5815 45.9413 20.4125 44.4585 27.033C42.9907 33.5903 38.6831 39.0273 32.6403 41.9501C32.1372 42.1996 31.4745 42.4801 30.6748 42.7831C30.6695 42.7846 30.665 42.7869 30.6597 42.7884C28.7175 43.4631 27.438 45.3561 27.4003 47.6095C27.4003 47.6253 27.3732 48.5609 27.3634 49.1497C27.3582 49.4655 27.1006 49.7188 26.7851 49.7188L26.7858 49.7173ZM19.7444 48.5594H26.2195C26.2308 48.0686 26.2443 47.5884 26.2451 47.5816C26.291 44.8465 27.8718 42.5343 30.2741 41.696C31.0347 41.408 31.6605 41.1434 32.1327 40.909C37.8607 38.1385 41.9402 32.9887 43.3311 26.7782C44.7356 20.5037 43.2204 14.0301 39.1733 9.01756C37.3388 6.74083 34.9749 4.82447 32.3368 3.47578C29.695 2.12558 26.7579 1.334 23.8427 1.18699C21.7989 1.08371 19.7859 1.2571 17.8602 1.70114C15.3313 2.28087 12.9388 3.31972 10.7488 4.78753C7.63855 6.85693 5.10818 9.73525 3.43105 13.1126C2.08001 15.8334 1.30433 18.873 1.17405 21.9398H10.7744C10.791 21.3232 10.8505 20.6989 10.9529 20.0762C10.9544 20.0679 10.9559 20.0597 10.9574 20.0521C11.1291 19.2289 11.346 18.4622 11.6209 17.7075C11.6254 17.6947 11.6307 17.6827 11.6359 17.6698C11.6698 17.5937 11.7015 17.5176 11.7331 17.4407C11.7918 17.2982 11.8521 17.1512 11.9281 17.0019C13.1692 14.3354 15.3426 12.1839 18.047 10.9437C19.1781 10.4401 20.2874 10.1145 21.4442 9.94709C25.0665 9.42239 28.7461 10.4771 31.54 12.8397C34.383 15.2431 36.0654 18.7705 36.1572 22.5165C36.2318 24.9131 35.6143 27.3165 34.3724 29.4643C33.1381 31.5978 31.3706 33.337 29.2589 34.4957C28.6497 34.8463 28.0284 35.1448 27.4274 35.4335C26.3934 35.9304 25.4159 36.3993 24.5243 37.1049C21.4878 39.506 19.6443 43.3908 19.7136 47.2446C19.7136 47.2491 19.7309 47.8974 19.7452 48.5586L19.7444 48.5594Z" fill="#1E2764"/>
<path d="M22.982 66C19.7768 66 17.1689 63.3893 17.1689 60.1808C17.1689 56.9723 19.7768 54.3616 22.982 54.3616C26.1871 54.3616 28.7951 56.9723 28.7951 60.1808C28.7951 63.3893 26.1871 66 22.982 66ZM22.982 55.5188C20.4147 55.5188 18.3256 57.61 18.3256 60.18C18.3256 62.75 20.4147 64.8413 22.982 64.8413C25.5493 64.8413 27.6383 62.75 27.6383 60.18C27.6383 57.61 25.5493 55.5188 22.982 55.5188Z" fill="#1E2764"/>
</g>
<defs>
<clipPath id="clip0_81_389">
<rect width="45" height="66" fill="white"/>
</clipPath>
</defs>
</svg>
